<svg version="1.1" id="Layer_1" xmlns="http://www.w3.org/2000/svg" xmlns:xlink="http://www.w3.org/1999/xlink" x="0px" y="0px"
	 width="100%" viewBox="0 0 527 538" enable-background="new 0 0 527 538" xml:space="preserve">
<path fill="#FEFFFE" opacity="1.000000" stroke="none" 
	d="
M528.000000,200.000000 
	C528.000000,313.333344 528.000000,426.166656 528.000000,539.000000 
	C352.333344,539.000000 176.666672,539.000000 1.000000,539.000000 
	C1.000000,359.666656 1.000000,180.333328 1.000000,1.000000 
	C176.666672,1.000000 352.333344,1.000000 528.000000,1.000000 
	C528.000000,67.166664 528.000000,133.333328 528.000000,200.000000 
M494.701019,221.374191 
	C494.408447,220.599182 494.115906,219.824173 493.865814,218.306595 
	C493.462677,216.881699 493.059540,215.456818 492.736206,213.264297 
	C491.793793,210.184616 490.851379,207.104919 489.957062,203.310425 
	C489.766968,202.880569 489.576874,202.450714 489.445190,201.410721 
	C489.091858,200.691895 488.738525,199.973068 488.363831,198.551788 
	C487.425812,196.048859 486.487762,193.545944 485.540283,190.315170 
	C479.690063,177.905579 474.284851,165.258331 467.829865,153.171722 
	C463.673706,145.389496 457.975525,138.430832 452.501038,130.604919 
	C447.711578,124.689926 442.922119,118.774925 437.899445,112.232910 
	C432.634796,107.396515 427.370148,102.560120 421.839233,97.098953 
	C416.056519,92.346344 410.269470,87.598991 404.492004,82.840034 
	C391.752655,72.346558 377.620636,64.184158 362.319275,57.686501 
	C362.319275,57.686501 362.279846,57.532852 362.026764,57.123077 
	C361.569794,57.030643 361.112823,56.938210 360.138367,56.282326 
	C350.083405,52.607357 340.028473,48.932388 329.257599,44.968822 
	C328.504425,45.012848 327.751251,45.056870 326.316132,44.810940 
	C325.771851,44.451130 325.274139,43.916157 324.676453,43.757118 
	C309.710602,39.775101 294.619293,36.629440 278.076508,36.977695 
	C268.712311,37.021900 259.348083,37.066109 249.065140,36.967491 
	C230.912354,37.271435 213.287354,40.637814 195.442078,46.054409 
	C194.952133,46.336170 194.462189,46.617928 193.192459,46.921181 
	C190.234268,47.938587 187.189499,48.758198 184.333145,50.008316 
	C173.146729,54.904194 162.019821,59.936005 150.946823,64.949387 
	C150.946823,64.949387 150.957123,64.867500 150.354980,64.933891 
	C149.873718,65.272293 149.392456,65.610695 148.974731,65.996948 
	C148.974731,65.996948 148.957321,65.919342 148.283188,66.022911 
	C146.782654,66.992073 145.282120,67.961235 143.181610,68.952072 
	C142.424896,69.546753 141.668167,70.141434 140.209106,70.897034 
	C127.080154,78.929184 114.363609,87.499855 103.872696,98.862030 
	C103.872696,98.862030 103.859619,98.732437 103.319397,98.914764 
	C103.118675,99.227028 102.917953,99.539291 102.848862,99.866791 
	C102.848862,99.866791 102.801796,99.742912 102.180130,100.016113 
	C96.473801,105.743393 90.464729,111.205627 85.150360,117.276039 
	C80.301048,122.815247 76.204506,129.013458 71.318352,135.017548 
	C71.012421,135.199814 70.885818,135.467056 70.352432,136.175797 
	C67.749931,140.316483 65.147430,144.457169 62.527428,148.838486 
	C62.527428,148.838486 62.590065,148.605499 62.054745,148.998688 
	C59.720181,153.333801 57.385616,157.668930 54.827740,162.324005 
	C54.827740,162.324005 54.906567,162.706131 54.374561,162.975708 
	C54.002575,163.650726 53.630589,164.325745 52.787651,165.571106 
	C47.980953,177.704025 42.488770,189.615875 38.491402,202.009827 
	C24.451393,245.541260 24.028492,289.589172 36.589703,333.405182 
	C52.073494,387.415741 82.911400,430.951935 129.165176,463.132111 
	C151.348816,478.565979 175.656906,489.634064 202.513794,496.633850 
	C219.681290,499.350616 236.783554,503.623138 254.034637,504.346436 
	C271.278870,505.069458 288.671967,502.242035 306.733337,501.037354 
	C308.153870,500.690247 309.574402,500.343140 311.814117,500.082489 
	C315.872314,499.043915 319.930511,498.005341 324.644318,497.007324 
	C325.448120,496.720551 326.251953,496.433807 327.864319,496.182434 
	C337.579254,492.780640 347.294189,489.378845 357.591278,485.973785 
	C358.067841,485.671448 358.544403,485.369080 359.764893,485.026123 
	C369.591309,479.716125 379.417725,474.406128 389.789154,469.029327 
	C390.190765,468.683594 390.592407,468.337860 391.677399,467.873627 
	C399.297150,462.284210 407.248108,457.089050 414.467682,451.023346 
	C429.473022,438.416046 443.330444,424.644104 454.088226,408.086426 
	C454.088226,408.086426 454.193024,408.230988 454.799774,407.955902 
	C480.007202,373.045837 495.043549,334.171295 498.569092,291.279694 
	C499.827087,275.974976 498.419373,260.451172 498.384369,244.239655 
	C497.870728,240.838654 497.357086,237.437637 496.927429,233.303207 
	C496.579315,231.875595 496.231171,230.447998 495.993683,228.330276 
	C495.871490,227.887161 495.749298,227.444046 495.740753,226.379303 
	C495.473267,225.593811 495.205780,224.808334 495.017456,223.326157 
	C494.878662,222.883850 494.739868,222.441544 494.701019,221.374191 
z"/>
<path fill="#2A4651" opacity="1.000000" stroke="none" 
	d="
M390.994019,467.992126 
	C390.592407,468.337860 390.190765,468.683594 389.091309,469.029541 
	C383.931976,471.021606 379.455444,472.980682 375.015930,475.020203 
	C373.024933,475.934875 371.176422,477.671539 369.143829,477.881958 
	C364.241974,478.389435 360.859619,480.502228 359.020966,485.066711 
	C358.544403,485.369080 358.067841,485.671448 357.044556,485.707825 
	C355.530304,485.313446 354.443634,484.831573 353.613708,485.111328 
	C345.236572,487.935364 336.887482,490.845734 328.580017,493.868011 
	C327.887238,494.120026 327.555298,495.363922 327.055725,496.147034 
	C326.251953,496.433807 325.448120,496.720551 324.074860,496.740234 
	C321.107208,496.904938 318.667480,497.183228 316.324127,497.817657 
	C314.485870,498.315308 312.766876,499.253510 310.994934,499.996033 
	C309.574402,500.343140 308.153870,500.690247 306.081116,500.727234 
	C303.468811,500.379303 301.485992,500.131592 299.552704,500.340912 
	C292.031616,501.155212 284.548615,502.556427 277.010864,502.938202 
	C253.017212,504.153442 229.350266,501.524200 205.970840,496.077637 
	C204.706406,495.783051 203.292938,496.128174 201.948853,496.175537 
	C175.656906,489.634064 151.348816,478.565979 129.165176,463.132111 
	C82.911400,430.951935 52.073494,387.415741 36.589703,333.405182 
	C24.028492,289.589172 24.451393,245.541260 38.491402,202.009827 
	C42.488770,189.615875 47.980953,177.704025 53.337856,165.208160 
	C54.227562,164.132202 54.567066,163.419159 54.906570,162.706131 
	C54.906567,162.706131 54.827740,162.324005 55.275803,162.103699 
	C60.527584,158.757965 62.295433,154.062653 62.590065,148.605499 
	C62.590065,148.605499 62.527428,148.838486 62.916748,148.814392 
	C67.921387,145.685318 70.708389,141.504547 70.938530,135.819244 
	C70.885818,135.467056 71.012421,135.199814 71.903473,134.947266 
	C73.939384,133.597107 75.829735,132.577621 76.767868,130.994019 
	C81.894379,122.340286 88.906731,115.352699 96.741684,109.365112 
	C100.264397,106.673012 101.644501,103.487045 102.801796,99.742912 
	C102.801796,99.742912 102.848862,99.866791 103.065552,99.783501 
	C103.474693,99.377617 103.667160,99.055031 103.859619,98.732437 
	C103.859619,98.732437 103.872696,98.862030 104.180565,98.866089 
	C111.476425,93.594475 118.319420,88.110039 125.505341,83.119354 
	C130.004288,79.994789 135.019333,77.613342 140.267792,74.634544 
	C140.379898,73.955551 140.645676,72.345833 140.911453,70.736115 
	C141.668167,70.141434 142.424896,69.546753 143.881104,68.956985 
	C146.039505,67.947716 147.498413,66.933533 148.957321,65.919342 
	C148.957321,65.919342 148.974731,65.996948 149.258148,65.957718 
	C150.013412,65.568169 150.485275,65.217842 150.957123,64.867508 
	C150.957123,64.867500 150.946823,64.949387 151.345703,64.954712 
	C154.820938,65.341774 157.101944,64.233955 159.761322,62.425407 
	C163.230667,60.066021 167.013702,56.805344 172.023499,58.598827 
	C177.495499,53.523289 184.312012,51.442989 191.339066,49.698475 
	C192.384003,49.439060 193.102646,47.865349 193.972229,46.899681 
	C194.462189,46.617928 194.952133,46.336170 196.006317,46.345364 
	C198.607239,46.382744 200.672791,46.268013 202.675613,45.851521 
	C211.271255,44.064030 219.816177,42.015961 228.442337,40.397205 
	C235.577209,39.058296 242.800018,38.188156 249.983871,37.110317 
	C259.348083,37.066109 268.712311,37.021900 278.540619,37.460365 
	C279.446838,38.906013 279.773010,40.619282 280.350128,40.708450 
	C283.731201,41.230865 287.168610,41.551025 290.591461,41.595284 
	C294.119751,41.640903 297.938690,40.355427 301.121185,41.324654 
	C306.696899,43.022751 312.099030,44.748074 318.042297,44.337666 
	C319.058929,44.774944 320.028931,44.889511 321.369812,45.012016 
	C325.178253,47.189339 328.505127,49.773178 332.991882,48.265358 
	C332.994781,48.508484 332.996338,48.994766 332.846741,49.189857 
	C333.463928,49.590324 334.230743,49.795696 335.036987,50.299652 
	C335.484100,50.917252 335.891846,51.236267 336.299561,51.555286 
	C336.534210,51.037323 336.768829,50.519352 337.367767,50.043095 
	C341.038483,52.239613 344.294769,54.478813 347.685150,56.492180 
	C348.576447,57.021481 349.882935,56.851604 351.008301,57.390030 
	C352.782471,58.848835 354.908783,61.165230 356.248962,60.775871 
	C361.962280,59.115971 364.280273,61.464748 364.548431,66.651970 
	C371.544037,67.329010 371.514923,67.361000 376.446960,71.848763 
	C377.408661,72.723824 378.617065,73.611374 379.842468,73.867455 
	C388.532837,75.683563 394.917542,81.648911 402.132111,86.100243 
	C403.631287,87.025223 405.105255,88.267387 406.086426,89.707108 
	C410.016418,95.473984 415.650391,98.711388 422.000610,100.998779 
	C422.000000,101.000000 422.002441,100.999084 422.037231,101.355118 
	C425.538239,108.728149 429.669922,115.051643 438.353943,117.060837 
	C440.523773,120.112297 442.102295,123.285049 444.225159,126.038078 
	C446.528717,129.025528 448.533997,132.653183 453.060364,133.369019 
	C455.077606,137.362488 456.889069,141.085922 459.066711,144.581223 
	C460.838593,147.425186 463.501953,149.768845 464.985168,152.727753 
	C470.779266,164.286362 476.205444,176.029022 481.933441,187.621674 
	C482.622894,189.017059 484.319763,189.914688 485.549713,191.043030 
	C486.487762,193.545944 487.425812,196.048859 488.256470,199.350647 
	C488.117340,200.760788 488.085510,201.372086 487.823212,202.151062 
	C488.053192,202.882324 488.513702,203.445923 488.985291,204.434082 
	C489.205261,208.319809 488.105774,212.303024 492.656403,214.031921 
	C493.059540,215.456818 493.462677,216.881699 493.609924,218.894089 
	C493.253143,220.319229 493.152222,221.156876 493.039368,222.368759 
	C493.045044,223.490341 493.062622,224.237717 493.068726,225.319397 
	C493.063812,226.099655 493.070343,226.545563 493.103210,227.328140 
	C494.047363,228.116653 494.965179,228.568527 495.883026,229.020386 
	C496.231171,230.447998 496.579315,231.875595 496.687256,233.775421 
	C496.217010,234.455688 496.068359,234.711166 495.756165,235.195587 
	C495.673126,236.235291 495.835175,237.093445 496.003845,238.392075 
	C496.035645,240.885315 496.060791,242.938080 496.074860,245.412506 
	C496.382202,247.955948 496.954224,250.075150 496.975586,252.199905 
	C497.073730,261.947083 497.415710,271.716583 496.907013,281.438171 
	C496.384979,291.415100 495.489746,301.432068 493.830475,311.275208 
	C491.647278,324.226257 488.867371,337.099670 482.896515,349.024261 
	C480.196960,354.415619 477.871277,359.994263 475.384216,365.491699 
	C475.249115,365.790375 475.209564,366.130859 475.093292,366.439758 
	C473.364960,371.032928 472.110657,375.886780 469.775391,380.148041 
	C466.962097,385.281525 462.901794,389.724274 459.996765,394.817108 
	C457.597443,399.023315 456.093628,403.740326 454.193024,408.230988 
	C454.193024,408.230988 454.088226,408.086426 453.779663,408.082581 
	C451.953979,408.936157 450.077789,409.471893 448.976227,410.701569 
	C439.685760,421.072388 432.139587,433.109131 420.015350,440.756134 
	C419.750397,440.923218 419.599274,441.263489 419.376526,441.505951 
	C415.915619,445.274200 412.792786,449.448822 408.897339,452.696564 
	C404.553528,456.318115 399.746979,459.590851 394.675232,462.055206 
	C391.665894,463.517456 391.175476,465.369659 390.994019,467.992126 
M338.843475,128.511368 
	C338.562561,128.342377 338.281647,128.173386 337.668488,127.505547 
	C337.113068,127.312950 336.557678,127.120354 335.583405,126.390968 
	C332.011780,124.998322 328.440125,123.605682 324.247406,121.849823 
	C322.121429,120.941345 320.061249,119.811188 317.859589,119.157837 
	C287.866791,110.257469 257.642487,108.884247 226.842651,115.883583 
	C223.261017,116.568077 219.579132,116.943214 216.137115,118.058578 
	C214.217361,118.680672 212.696426,120.533623 210.358017,122.193985 
	C209.677383,122.448547 208.996750,122.703110 208.044022,122.221405 
	C206.968521,122.228394 205.596878,121.808334 204.867386,122.314240 
	C201.163895,124.882629 197.568054,127.377716 192.644669,126.105103 
	C191.960052,125.928131 190.445709,126.633438 190.260834,127.225510 
	C188.980469,131.325989 185.432693,132.485214 182.183578,134.423233 
	C175.832169,138.211685 169.781265,142.249481 164.813232,148.194122 
	C158.764740,155.431610 150.693512,160.964859 144.534042,168.126923 
	C137.187531,176.669266 131.549347,186.539246 125.700706,196.214447 
	C123.063690,200.576752 120.978813,204.652985 121.268898,209.817307 
	C121.322037,210.763382 120.060143,211.721390 119.892120,212.753159 
	C119.329437,216.208374 118.987373,219.699539 118.544891,223.663010 
	C118.544891,223.663010 118.175598,223.979477 117.546120,224.236908 
	C117.522232,225.206741 117.498352,226.176590 117.463509,227.646408 
	C117.349236,227.767776 117.234962,227.889145 116.396721,228.110138 
	C116.240944,229.733398 116.085175,231.356659 115.967285,233.745956 
	C115.805115,234.490585 115.642944,235.235214 114.793015,236.164230 
	C113.573509,240.297012 111.506172,244.387955 111.299683,248.570740 
	C110.763985,259.422302 110.508034,270.347351 111.172661,281.179749 
	C111.711609,289.963898 113.686501,298.667389 115.245804,307.367004 
	C115.365921,308.037140 117.240501,308.392761 118.704422,309.311279 
	C118.768791,309.880310 118.833160,310.449310 118.222588,311.138062 
	C117.950294,311.659637 117.326942,312.300171 117.457451,312.685211 
	C120.146255,320.618073 122.807228,328.564301 125.738617,336.408905 
	C126.800980,339.251892 129.513885,341.741669 129.795731,344.560394 
	C130.480194,351.405212 136.489670,352.515350 140.898605,356.157318 
	C141.258057,356.774078 141.617493,357.390869 141.301270,358.103851 
	C137.866257,360.255981 139.324371,362.646973 141.259720,364.650421 
	C143.842636,367.324188 146.990997,369.473999 149.433304,372.255554 
	C152.300262,375.520813 154.649933,379.237579 157.261047,382.730774 
	C160.636826,387.246918 167.216904,388.517578 169.199738,394.533691 
	C169.429077,395.229584 170.820694,395.525513 171.650879,396.043060 
	C176.388199,398.996460 182.825851,400.890747 185.492966,405.146057 
	C190.895523,413.765686 200.348587,413.612396 207.595734,417.957245 
	C208.906860,418.743286 211.059113,418.342621 212.789352,418.163757 
	C215.550430,417.878387 217.725052,417.898224 218.136520,421.549957 
	C218.254333,422.595520 219.752457,424.047546 220.864563,424.325531 
	C226.955322,425.848053 233.149216,428.064484 239.951324,423.908417 
	C247.600174,425.032349 255.249008,426.156250 263.604034,427.730042 
	C271.027985,427.788239 278.518219,428.488586 285.857941,427.730865 
	C293.795319,426.911499 301.592133,424.730743 309.972687,423.263153 
	C310.322357,423.201233 310.672058,423.139313 311.777283,423.076202 
	C313.642273,422.427673 315.507263,421.779175 317.932465,421.184662 
	C318.295074,421.095886 318.657715,421.007111 319.759247,420.936981 
	C322.172577,419.976868 324.585907,419.016785 327.738861,417.973450 
	C345.670593,411.382111 360.731750,400.273438 375.686493,387.902344 
	C377.822784,385.629730 379.959106,383.357117 382.049713,380.998566 
	C382.049713,380.998566 382.058716,381.095428 382.543060,380.908051 
	C382.724396,380.622589 382.905731,380.337158 383.002075,380.056427 
	C383.002075,380.056427 383.076202,380.098358 383.680664,379.948944 
	C384.168335,379.322601 384.656036,378.696289 385.557312,377.865540 
	C385.816437,377.673950 385.982574,377.421204 386.636566,376.767334 
	C391.437164,370.185638 396.237732,363.603943 401.002716,356.997192 
	C401.002716,356.997192 401.023438,357.034576 401.620239,356.704163 
	C407.147491,344.970245 412.869263,333.321899 418.090088,321.453217 
	C419.779572,317.612549 420.155029,313.193848 421.593994,308.603821 
	C422.000824,306.066650 422.407654,303.529480 422.986816,300.350128 
	C423.003693,299.908112 423.020599,299.466095 423.551422,298.445343 
	C423.953247,294.965210 424.355072,291.485077 424.945190,287.190186 
	C424.968719,285.797150 424.992249,284.404114 425.531952,282.367859 
	C425.367493,273.905243 425.203064,265.442627 425.101471,256.180634 
	C425.016846,255.117935 424.932251,254.055237 424.960114,252.199310 
	C424.660980,250.455612 424.361816,248.711914 424.100433,246.299805 
	C424.015656,245.863876 423.930878,245.427963 423.924835,244.168182 
	C423.087463,239.772522 422.436554,235.331589 421.381775,230.988724 
	C415.459839,206.606812 404.028900,184.986008 387.485352,166.252487 
	C377.462799,154.903137 366.105194,144.867981 352.549225,136.561188 
	C350.027313,135.076859 347.505371,133.592529 344.526611,131.958374 
	C344.526611,131.958374 344.048920,131.904419 344.006439,131.972733 
	C344.006439,131.972733 344.084595,131.953705 343.898895,131.470596 
	C343.604736,131.346176 343.310547,131.221741 342.599274,130.980591 
	C342.599274,130.980591 342.166962,130.953796 341.922089,130.470566 
	C341.618286,130.337402 341.314453,130.204239 340.593079,129.974228 
	C340.593079,129.974228 340.164764,129.956512 339.934082,129.471542 
	C339.627411,129.299622 339.320740,129.127716 338.999969,129.002686 
	C338.999969,129.002686 339.045166,128.983749 338.843475,128.511368 
z"/>
<path fill="#3D5352" opacity="1.000000" stroke="none" 
	d="
M454.496399,408.093445 
	C456.093628,403.740326 457.597443,399.023315 459.996765,394.817108 
	C462.901794,389.724274 466.962097,385.281525 469.775391,380.148041 
	C472.110657,375.886780 473.364960,371.032928 475.093292,366.439758 
	C475.209564,366.130859 475.249115,365.790375 475.384216,365.491699 
	C477.871277,359.994263 480.196960,354.415619 482.896515,349.024261 
	C488.867371,337.099670 491.647278,324.226257 493.830475,311.275208 
	C495.489746,301.432068 496.384979,291.415100 496.907013,281.438171 
	C497.415710,271.716583 497.073730,261.947083 496.975586,252.199905 
	C496.954224,250.075150 496.382202,247.955948 496.340881,245.414764 
	C497.154785,245.006012 497.691589,245.016693 498.228424,245.027359 
	C498.419373,260.451172 499.827087,275.974976 498.569092,291.279694 
	C495.043549,334.171295 480.007202,373.045837 454.496399,408.093445 
z"/>
<path fill="#314549" opacity="1.000000" stroke="none" 
	d="
M422.001221,100.997559 
	C415.650391,98.711388 410.016418,95.473984 406.086426,89.707108 
	C405.105255,88.267387 403.631287,87.025223 402.132111,86.100243 
	C394.917542,81.648911 388.532837,75.683563 379.842468,73.867455 
	C378.617065,73.611374 377.408661,72.723824 376.446960,71.848763 
	C371.514923,67.361000 371.544037,67.329010 364.548431,66.651970 
	C364.280273,61.464748 361.962280,59.115971 356.248962,60.775871 
	C354.908783,61.165230 352.782471,58.848835 351.364410,57.233986 
	C354.692596,56.742397 357.674225,56.794086 360.655853,56.845776 
	C361.112823,56.938210 361.569794,57.030643 361.984375,57.462074 
	C361.842133,57.895065 361.742279,57.989059 361.642426,58.083054 
	C361.920013,57.960545 362.197632,57.838036 362.475220,57.715523 
	C377.620636,64.184158 391.752655,72.346558 404.492004,82.840034 
	C410.269470,87.598991 416.056519,92.346344 421.943542,97.819916 
	C422.032318,99.359779 422.016785,100.178665 422.001221,100.997559 
z"/>
<path fill="#3D5352" opacity="1.000000" stroke="none" 
	d="
M391.335693,467.932861 
	C391.175476,465.369659 391.665894,463.517456 394.675232,462.055206 
	C399.746979,459.590851 404.553528,456.318115 408.897339,452.696564 
	C412.792786,449.448822 415.915619,445.274200 419.376526,441.505951 
	C419.599274,441.263489 419.750397,440.923218 420.015350,440.756134 
	C432.139587,433.109131 439.685760,421.072388 448.976227,410.701569 
	C450.077789,409.471893 451.953979,408.936157 453.854095,408.131897 
	C443.330444,424.644104 429.473022,438.416046 414.467682,451.023346 
	C407.248108,457.089050 399.297150,462.284210 391.335693,467.932861 
z"/>
<path fill="#2D4145" opacity="1.000000" stroke="none" 
	d="
M360.397095,56.564049 
	C357.674225,56.794086 354.692596,56.742397 351.354858,56.846756 
	C349.882935,56.851604 348.576447,57.021481 347.685150,56.492180 
	C344.294769,54.478813 341.038483,52.239613 337.033447,50.042351 
	C335.889038,50.000286 335.443298,50.000675 334.997559,50.001068 
	C334.230743,49.795696 333.463928,49.590324 333.098694,49.175476 
	C333.766418,48.808807 334.032623,48.651615 334.298798,48.494431 
	C333.862213,48.337036 333.425598,48.179638 332.989014,48.022232 
	C328.505127,49.773178 325.178253,47.189339 321.164581,44.748856 
	C319.724152,44.323486 318.859894,44.169220 317.995636,44.014954 
	C312.099030,44.748074 306.696899,43.022751 301.121185,41.324654 
	C297.938690,40.355427 294.119751,41.640903 290.591461,41.595284 
	C287.168610,41.551025 283.731201,41.230865 280.350128,40.708450 
	C279.773010,40.619282 279.446838,38.906013 279.002930,37.542824 
	C294.619293,36.629440 309.710602,39.775101 324.676453,43.757118 
	C325.274139,43.916157 325.771851,44.451130 326.695312,45.244301 
	C328.040863,45.537582 329.007172,45.397499 329.973511,45.257416 
	C340.028473,48.932388 350.083405,52.607357 360.397095,56.564049 
z"/>
<path fill="#425253" opacity="1.000000" stroke="none" 
	d="
M485.544983,190.679092 
	C484.319763,189.914688 482.622894,189.017059 481.933441,187.621674 
	C476.205444,176.029022 470.779266,164.286362 464.985168,152.727753 
	C463.501953,149.768845 460.838593,147.425186 459.066711,144.581223 
	C456.889069,141.085922 455.077606,137.362488 453.052338,133.052795 
	C452.987366,131.946274 452.977936,131.524658 452.968475,131.103043 
	C457.975525,138.430832 463.673706,145.389496 467.829865,153.171722 
	C474.284851,165.258331 479.690063,177.905579 485.544983,190.679092 
z"/>
<path fill="#3D5352" opacity="1.000000" stroke="none" 
	d="
M202.231323,496.404694 
	C203.292938,496.128174 204.706406,495.783051 205.970840,496.077637 
	C229.350266,501.524200 253.017212,504.153442 277.010864,502.938202 
	C284.548615,502.556427 292.031616,501.155212 299.552704,500.340912 
	C301.485992,500.131592 303.468811,500.379303 305.714355,500.694031 
	C288.671967,502.242035 271.278870,505.069458 254.034637,504.346436 
	C236.783554,503.623138 219.681290,499.350616 202.231323,496.404694 
z"/>
<path fill="#294043" opacity="1.000000" stroke="none" 
	d="
M140.560272,70.816574 
	C140.645676,72.345833 140.379898,73.955551 140.267792,74.634544 
	C135.019333,77.613342 130.004288,79.994789 125.505341,83.119354 
	C118.319420,88.110039 111.476425,93.594475 104.119431,98.843643 
	C114.363609,87.499855 127.080154,78.929184 140.560272,70.816574 
z"/>
<path fill="#294043" opacity="1.000000" stroke="none" 
	d="
M102.490967,99.879517 
	C101.644501,103.487045 100.264397,106.673012 96.741684,109.365112 
	C88.906731,115.352699 81.894379,122.340286 76.767868,130.994019 
	C75.829735,132.577621 73.939384,133.597107 72.132385,134.899109 
	C76.204506,129.013458 80.301048,122.815247 85.150360,117.276039 
	C90.464729,111.205627 96.473801,105.743393 102.490967,99.879517 
z"/>
<path fill="#294043" opacity="1.000000" stroke="none" 
	d="
M193.582336,46.910431 
	C193.102646,47.865349 192.384003,49.439060 191.339066,49.698475 
	C184.312012,51.442989 177.495499,53.523289 172.023499,58.598827 
	C167.013702,56.805344 163.230667,60.066021 159.761322,62.425407 
	C157.101944,64.233955 154.820938,65.341774 151.307693,64.938675 
	C162.019821,59.936005 173.146729,54.904194 184.333145,50.008316 
	C187.189499,48.758198 190.234268,47.938587 193.582336,46.910431 
z"/>
<path fill="#294043" opacity="1.000000" stroke="none" 
	d="
M249.524506,37.038902 
	C242.800018,38.188156 235.577209,39.058296 228.442337,40.397205 
	C219.816177,42.015961 211.271255,44.064030 202.675613,45.851521 
	C200.672791,46.268013 198.607239,46.382744 196.297745,46.372284 
	C213.287354,40.637814 230.912354,37.271435 249.524506,37.038902 
z"/>
<path fill="#3D5352" opacity="1.000000" stroke="none" 
	d="
M359.392944,485.046448 
	C360.859619,480.502228 364.241974,478.389435 369.143829,477.881958 
	C371.176422,477.671539 373.024933,475.934875 375.015930,475.020203 
	C379.455444,472.980682 383.931976,471.021606 388.818787,469.062927 
	C379.417725,474.406128 369.591309,479.716125 359.392944,485.046448 
z"/>
<path fill="#344649" opacity="1.000000" stroke="none" 
	d="
M452.734741,130.853973 
	C452.977936,131.524658 452.987366,131.946274 453.004852,132.684128 
	C448.533997,132.653183 446.528717,129.025528 444.225159,126.038078 
	C442.102295,123.285049 440.523773,120.112297 438.353149,116.670731 
	C437.964569,115.180779 437.928314,114.144516 437.952362,113.046310 
	C438.012634,112.984352 438.132660,112.859940 438.132660,112.859932 
	C442.922119,118.774925 447.711578,124.689926 452.734741,130.853973 
z"/>
<path fill="#3D5352" opacity="1.000000" stroke="none" 
	d="
M327.460022,496.164734 
	C327.555298,495.363922 327.887238,494.120026 328.580017,493.868011 
	C336.887482,490.845734 345.236572,487.935364 353.613708,485.111328 
	C354.443634,484.831573 355.530304,485.313446 356.753479,485.709442 
	C347.294189,489.378845 337.579254,492.780640 327.460022,496.164734 
z"/>
<path fill="#344649" opacity="1.000000" stroke="none" 
	d="
M422.000610,100.998779 
	C422.016785,100.178665 422.032318,99.359779 422.076691,98.132309 
	C427.370148,102.560120 432.634796,107.396515 438.016052,112.546425 
	C438.132660,112.859940 438.012634,112.984352 437.560364,113.009842 
	C436.115265,112.960938 434.749573,113.277458 434.192444,112.746162 
	C431.410187,110.092743 428.890656,107.166389 426.173096,104.441391 
	C424.906189,103.171005 423.400116,102.139091 422.002441,100.999084 
	C422.002441,100.999084 422.000000,101.000000 422.000610,100.998779 
z"/>
<path fill="#294043" opacity="1.000000" stroke="none" 
	d="
M70.645477,135.997528 
	C70.708389,141.504547 67.921387,145.685318 62.925499,148.694061 
	C65.147430,144.457169 67.749931,140.316483 70.645477,135.997528 
z"/>
<path fill="#294043" opacity="1.000000" stroke="none" 
	d="
M62.322403,148.802094 
	C62.295433,154.062653 60.527584,158.757965 55.387459,161.943726 
	C57.385616,157.668930 59.720181,153.333801 62.322403,148.802094 
z"/>
<path fill="#425253" opacity="1.000000" stroke="none" 
	d="
M492.696289,213.648102 
	C488.105774,212.303024 489.205261,208.319809 489.219177,204.434753 
	C489.442017,204.010895 489.908966,204.025238 489.908966,204.025238 
	C490.851379,207.104919 491.793793,210.184616 492.696289,213.648102 
z"/>
<path fill="#425253" opacity="1.000000" stroke="none" 
	d="
M498.306396,244.633514 
	C497.691589,245.016693 497.154785,245.006012 496.351929,244.993103 
	C496.060791,242.938080 496.035645,240.885315 496.005981,238.025772 
	C496.001373,236.484009 496.001282,235.749023 496.001221,235.014038 
	C496.068359,234.711166 496.217010,234.455688 496.645264,234.142120 
	C497.357086,237.437637 497.870728,240.838654 498.306396,244.633514 
z"/>
<path fill="#3D5352" opacity="1.000000" stroke="none" 
	d="
M311.404510,500.039246 
	C312.766876,499.253510 314.485870,498.315308 316.324127,497.817657 
	C318.667480,497.183228 321.107208,496.904938 323.747070,496.719940 
	C319.930511,498.005341 315.872314,499.043915 311.404510,500.039246 
z"/>
<path fill="#294043" opacity="1.000000" stroke="none" 
	d="
M148.620255,65.971130 
	C147.498413,66.933533 146.039505,67.947716 144.181091,68.946152 
	C145.282120,67.961235 146.782654,66.992073 148.620255,65.971130 
z"/>
<path fill="#425253" opacity="1.000000" stroke="none" 
	d="
M493.076904,226.991486 
	C493.070343,226.545563 493.063812,226.099655 493.308350,225.217041 
	C494.019073,224.527832 494.478668,224.275345 494.938293,224.022842 
	C495.205780,224.808334 495.473267,225.593811 495.364197,226.690308 
	C494.350708,226.998032 493.713806,226.994751 493.076904,226.991486 
z"/>
<path fill="#3D5352" opacity="1.000000" stroke="none" 
	d="
M489.933014,203.667831 
	C489.908966,204.025238 489.442017,204.010895 489.208130,204.010223 
	C488.513702,203.445923 488.053192,202.882324 488.044678,202.157715 
	C488.793365,202.004837 489.090057,202.012909 489.386780,202.020874 
	C489.576874,202.450714 489.766968,202.880569 489.933014,203.667831 
z"/>
<path fill="#3D5352" opacity="1.000000" stroke="none" 
	d="
M493.103210,227.328125 
	C493.713806,226.994751 494.350708,226.998032 495.307373,227.001129 
	C495.749298,227.444046 495.871490,227.887161 495.938354,228.675323 
	C494.965179,228.568527 494.047363,228.116653 493.103210,227.328125 
z"/>
<path fill="#425253" opacity="1.000000" stroke="none" 
	d="
M493.051331,221.994537 
	C493.152222,221.156876 493.253143,220.319229 493.588684,219.265381 
	C494.115906,219.824173 494.408447,220.599182 494.392395,221.688019 
	C493.739624,221.999420 493.395477,221.996979 493.051331,221.994537 
z"/>
<path fill="#3D5352" opacity="1.000000" stroke="none" 
	d="
M493.039368,222.368759 
	C493.395477,221.996979 493.739624,221.999420 494.342407,222.000549 
	C494.739868,222.441544 494.878662,222.883850 494.977875,223.674500 
	C494.478668,224.275345 494.019073,224.527832 493.319824,224.882706 
	C493.062622,224.237717 493.045044,223.490341 493.039368,222.368759 
z"/>
<path fill="#314549" opacity="1.000000" stroke="none" 
	d="
M329.615540,45.113121 
	C329.007172,45.397499 328.040863,45.537582 327.036316,45.389282 
	C327.751251,45.056870 328.504425,45.012848 329.615540,45.113121 
z"/>
<path fill="#425253" opacity="1.000000" stroke="none" 
	d="
M489.415985,201.715790 
	C489.090057,202.012909 488.793365,202.004837 488.275177,201.990036 
	C488.085510,201.372086 488.117340,200.760788 488.267151,199.701874 
	C488.738525,199.973068 489.091858,200.691895 489.415985,201.715790 
z"/>
<path fill="#294043" opacity="1.000000" stroke="none" 
	d="
M54.640564,162.840912 
	C54.567066,163.419159 54.227562,164.132202 53.573330,164.923004 
	C53.630589,164.325745 54.002575,163.650726 54.640564,162.840912 
z"/>
<path fill="#294043" opacity="1.000000" stroke="none" 
	d="
M150.656067,64.900696 
	C150.485275,65.217842 150.013412,65.568169 149.226379,65.933792 
	C149.392456,65.610695 149.873718,65.272293 150.656067,64.900696 
z"/>
<path fill="#294043" opacity="1.000000" stroke="none" 
	d="
M103.589508,98.823601 
	C103.667160,99.055031 103.474693,99.377617 102.999725,99.775879 
	C102.917953,99.539291 103.118675,99.227028 103.589508,98.823601 
z"/>
<path fill="#FAFCEF" opacity="1.000000" stroke="none" 
	d="
M117.120682,228.010529 
	C117.234962,227.889145 117.349236,227.767776 117.641602,227.116165 
	C117.938324,225.717102 118.056953,224.848297 118.175598,223.979477 
	C118.175598,223.979477 118.544891,223.663010 118.731133,223.125168 
	C128.049454,192.034332 145.052582,166.498077 169.961044,146.875015 
	C181.725388,137.606964 195.469193,130.851547 208.316116,122.957672 
	C208.996750,122.703110 209.677383,122.448547 211.041901,121.986397 
	C216.872452,120.035080 222.019119,118.291351 227.165802,116.547623 
	C257.642487,108.884247 287.866791,110.257469 317.859589,119.157837 
	C320.061249,119.811188 322.121429,120.941345 324.609924,122.368065 
	C328.017395,126.581406 331.062347,130.276520 334.157410,134.258270 
	C334.959167,135.424377 335.710846,136.303848 336.534546,137.530823 
	C337.670685,139.618317 338.734802,141.358276 339.835022,143.389847 
	C340.219360,144.130707 340.567596,144.579941 340.930267,145.388718 
	C342.219574,147.681854 343.494415,149.615433 344.712830,151.654648 
	C344.656403,151.760284 344.792999,151.957001 344.861328,152.284241 
	C345.235535,152.923981 345.541412,153.236465 345.736145,153.635681 
	C345.625061,153.722427 345.717224,153.988846 345.729004,154.255539 
	C345.809814,154.686279 345.878845,154.850311 345.953644,155.308258 
	C346.256012,156.082077 346.552612,156.561996 346.870728,157.402924 
	C347.869446,159.662735 348.846619,161.561554 349.765991,163.586487 
	C349.708221,163.712585 349.829926,163.961899 349.836548,164.369568 
	C357.147247,185.915497 361.138123,207.675552 362.004730,230.469421 
	C362.245087,250.186539 360.316650,269.210175 355.988525,288.346344 
	C355.850067,289.413086 355.786591,290.128479 355.461334,291.107941 
	C353.727142,297.224884 352.254730,303.077789 350.542725,309.106812 
	C350.204834,309.854584 350.106567,310.426270 349.736572,311.228943 
	C341.995728,332.065430 332.129852,351.396576 319.007690,369.017120 
	C316.871765,371.885254 315.029419,374.972046 312.778198,377.949463 
	C312.327393,377.979706 312.149719,378.018219 311.750671,377.807068 
	C295.845032,363.072510 280.163116,348.585083 264.475800,334.103516 
	C253.266693,323.755981 242.050385,313.416290 230.825806,302.804565 
	C230.886734,302.372101 230.959106,302.208160 231.495239,302.085266 
	C243.149780,302.468994 254.112228,301.528595 264.304382,296.399597 
	C264.285156,296.431793 264.360077,296.427856 264.711853,296.369507 
	C267.368866,295.187286 269.674103,294.063416 272.326843,292.912903 
	C283.742798,286.153687 293.523132,278.154480 299.200439,265.947296 
	C299.305054,265.876953 299.295959,265.624908 299.564209,265.381897 
	C301.201782,261.422211 302.571167,257.705505 304.135834,253.728943 
	C304.491974,252.636688 304.652802,251.804276 305.020569,250.775620 
	C305.323578,250.035828 305.419647,249.492294 305.670898,248.527008 
	C308.867859,247.532410 311.909637,246.959579 315.403748,246.525742 
	C322.140747,246.664734 328.425385,246.664734 335.270142,246.664734 
	C335.270142,237.388351 335.279602,228.451965 335.220947,219.516006 
	C335.219330,219.267563 334.487549,219.023941 333.713257,218.647095 
	C324.564392,218.633835 315.798462,218.751541 306.824036,218.720398 
	C306.314606,218.410599 306.013702,218.249680 305.685333,217.731857 
	C304.959778,215.196213 304.261749,213.017441 303.562866,210.598114 
	C303.562073,210.357529 303.254852,209.987213 303.256104,209.595459 
	C300.183167,203.459824 297.109039,197.715942 293.873047,191.624176 
	C294.875275,190.794449 296.036041,189.904022 297.203918,189.894623 
	C307.694763,189.810120 318.186890,189.881241 328.678619,189.904633 
	C330.755920,189.909271 332.833221,189.905304 335.301544,189.905304 
	C335.301544,181.147095 335.360657,173.160370 335.201080,165.177994 
	C335.186676,164.459122 333.760254,163.768478 332.526978,162.984955 
	C286.200470,162.904037 240.336578,162.894485 194.472687,162.913513 
	C189.335587,162.915649 184.198563,163.079712 178.692627,163.361908 
	C178.323761,172.190811 178.323761,180.826492 178.323761,189.955490 
	C181.348038,189.955490 183.651031,189.953583 185.954025,189.955811 
	C200.276962,189.969589 214.605789,189.735916 228.921005,190.075638 
	C240.825577,190.358154 250.987244,195.125687 258.500061,204.458359 
	C261.811310,208.571671 265.846649,212.743668 264.399719,218.846085 
	C237.202271,218.723938 210.459152,218.643524 183.716171,218.680328 
	C182.040680,218.682632 180.366455,219.601974 178.548233,220.473297 
	C178.341019,229.336014 178.277206,237.820084 178.176331,246.731201 
	C179.574066,248.014343 180.955643,249.459991 182.455505,249.595383 
	C185.030243,249.827820 187.678329,249.038696 190.296509,249.031998 
	C212.359909,248.975632 234.423691,248.959381 256.486877,249.047485 
	C259.423676,249.059219 262.357849,249.722977 265.303680,250.473526 
	C262.515900,255.696609 260.402588,261.135132 256.779755,265.241974 
	C248.749756,274.344818 237.790054,277.591858 225.508347,278.264557 
	C211.051926,278.354065 197.059052,278.502136 182.677582,278.494751 
	C178.868378,277.672180 177.959030,279.151184 178.208572,282.450104 
	C178.572342,287.259003 178.713379,292.115234 178.484100,296.929138 
	C178.292648,300.948792 179.704361,303.760468 182.631744,306.465973 
	C200.001297,322.518860 217.222610,338.732117 234.496948,354.888031 
	C251.511612,370.801086 268.530060,386.710083 285.483704,402.691895 
	C285.420563,402.762970 285.415558,402.953613 285.088440,402.786682 
	C273.163544,408.059021 261.565735,413.498291 249.690216,418.929230 
	C248.922714,419.139679 248.432922,419.358459 247.547058,419.615082 
	C244.384796,420.699066 241.618607,421.745209 238.562881,422.799988 
	C237.887451,422.797607 237.501526,422.786591 236.933090,422.624756 
	C236.415207,422.330841 236.127899,422.396790 235.492981,422.575195 
	C217.457474,418.273071 201.240738,410.581757 186.277039,400.674072 
	C176.839432,394.425354 168.633881,386.315857 159.759979,378.759399 
	C158.759689,377.660736 157.875092,376.843689 156.858124,375.719177 
	C151.809494,369.610382 146.893219,363.808990 141.976944,358.007629 
	C141.617493,357.390869 141.258057,356.774078 140.549805,355.666168 
	C130.901901,341.516541 124.214806,326.597870 118.897537,311.018341 
	C118.833160,310.449310 118.768791,309.880310 118.500847,308.689575 
	C111.551788,284.265381 111.484726,260.201996 115.480774,235.979843 
	C115.642944,235.235214 115.805115,234.490585 116.181046,233.076431 
	C116.636757,230.941452 116.878723,229.475983 117.120682,228.010529 
z"/>
<path fill="#32B6AE" opacity="1.000000" stroke="none" 
	d="
M423.037506,299.024078 
	C423.020599,299.466095 423.003693,299.908112 422.548218,300.683167 
	C416.325714,304.185547 415.899689,305.284332 419.010986,309.428040 
	C417.686340,314.876923 416.662354,320.009399 414.953674,324.902832 
	C413.235352,329.823944 410.903107,334.538330 408.710693,339.283569 
	C407.270508,342.400665 405.455933,345.348206 404.077850,348.489563 
	C402.865692,351.252777 402.027039,354.179871 401.023438,357.034576 
	C401.023438,357.034576 401.002716,356.997192 400.667908,357.031860 
	C398.974152,358.227844 397.481110,359.267029 396.287262,360.578583 
	C394.424652,362.624847 392.765015,364.855835 390.635925,367.005768 
	C386.121887,366.694489 385.842163,368.881134 387.005920,372.003479 
	C387.001282,372.000793 387.006287,372.010437 386.603333,372.015015 
	C384.428772,372.357269 382.305756,372.195526 380.961975,373.141144 
	C378.501587,374.872437 374.495209,377.461304 374.684967,379.332367 
	C375.257874,384.982300 370.896790,386.332062 367.925812,388.516418 
	C367.196228,389.052826 363.813354,385.957001 361.625946,384.569489 
	C361.401886,384.427399 361.009705,384.550415 360.119476,384.550415 
	C360.214539,386.590149 360.307373,388.581757 360.416199,390.916199 
	C357.354523,390.916199 354.487518,390.916199 352.537750,390.916199 
	C353.528137,388.069427 354.246094,386.005829 354.993134,383.651825 
	C355.345795,382.905029 355.669342,382.448608 356.396057,381.994934 
	C360.663605,382.514496 362.572021,380.648315 363.011292,376.585175 
	C364.182373,373.749481 365.307770,371.265106 366.577728,368.461609 
	C373.798401,369.455383 371.240723,363.561310 371.233704,359.089478 
	C372.918213,359.748077 374.165985,360.235901 374.413757,360.332794 
	C380.957153,358.110046 376.788330,353.862457 377.236816,350.130890 
	C378.927277,351.225800 380.168427,352.029663 381.059937,352.607117 
	C386.960663,349.814117 383.089264,345.209198 383.142212,340.701599 
	C384.967346,342.219849 385.906403,343.001007 387.723602,344.512634 
	C389.314240,339.567047 390.687286,335.297974 392.318237,330.828857 
	C393.042816,329.417480 393.509460,328.206146 394.225616,326.831757 
	C394.651886,326.113251 394.828674,325.557861 395.359314,324.945862 
	C396.478729,322.926056 397.244354,320.962830 398.289368,318.792114 
	C399.714600,316.056702 400.860413,313.528748 402.287048,311.258789 
	C402.368591,313.772095 402.657898,316.215973 401.874481,318.245819 
	C399.875702,323.424652 399.941681,327.315308 406.442505,328.548218 
	C406.745453,328.605682 407.076935,328.512329 407.441711,328.485809 
	C409.913086,323.954224 412.554413,319.482819 414.771912,314.810242 
	C415.407898,313.470123 415.418121,311.198517 414.690216,309.953125 
	C411.149658,303.895447 415.158356,299.101562 417.444000,294.371979 
	C418.950134,291.255310 420.307800,288.854248 419.353973,285.169037 
	C418.334473,281.230347 418.306458,276.944550 423.995422,276.423431 
	C424.336578,278.898346 424.676178,280.954712 425.015808,283.011078 
	C424.992249,284.404114 424.968719,285.797150 424.503754,287.692261 
	C423.720703,291.804230 423.379120,295.414154 423.037506,299.024078 
z"/>
<path fill="#36B7B2" opacity="1.000000" stroke="none" 
	d="
M354.964050,383.942200 
	C354.246094,386.005829 353.528137,388.069427 352.537750,390.916199 
	C354.487518,390.916199 357.354523,390.916199 360.416199,390.916199 
	C360.307373,388.581757 360.214539,386.590149 360.119476,384.550415 
	C361.009705,384.550415 361.401886,384.427399 361.625946,384.569489 
	C363.813354,385.957001 367.196228,389.052826 367.925812,388.516418 
	C370.896790,386.332062 375.257874,384.982300 374.684967,379.332367 
	C374.495209,377.461304 378.501587,374.872437 380.961975,373.141144 
	C382.305756,372.195526 384.428772,372.357269 386.564056,372.384979 
	C386.637024,374.202667 386.346344,375.654968 386.055664,377.107300 
	C385.982574,377.421204 385.816437,377.673950 385.007416,377.981110 
	C383.997070,378.763916 383.536652,379.431122 383.076202,380.098358 
	C383.076202,380.098358 383.002075,380.056427 382.800415,380.145325 
	C382.418732,380.521301 382.238708,380.808380 382.058716,381.095428 
	C382.058716,381.095428 382.049713,380.998566 381.718842,381.042297 
	C379.262329,383.368774 377.136719,385.651550 375.011108,387.934326 
	C360.731750,400.273438 345.670593,411.382111 327.147644,417.732178 
	C324.044403,418.633392 321.532349,419.775848 319.020325,420.918335 
	C318.657715,421.007111 318.295074,421.095886 317.204315,421.116943 
	C314.658020,421.725311 312.839874,422.401398 311.021729,423.077454 
	C310.672058,423.139313 310.322357,423.201233 309.234406,423.161621 
	C304.663269,423.708710 300.850433,424.724579 296.993683,424.934479 
	C286.996277,425.478607 276.979492,425.667847 266.973694,425.749634 
	C266.976959,425.500519 266.972534,425.002258 267.198364,424.897888 
	C267.705750,424.597443 267.903900,424.337738 268.426331,424.004639 
	C281.653961,420.234131 294.530762,416.650909 307.248505,412.571686 
	C309.989349,411.692535 312.156494,409.024689 315.322418,406.623688 
	C319.253357,408.712433 320.750854,405.151398 321.566010,401.666046 
	C324.180206,401.818695 326.383820,401.947357 327.574005,402.016876 
	C328.818176,398.817841 329.122040,396.029663 330.665680,394.807526 
	C331.617493,394.054016 334.460052,395.688751 336.215027,396.183929 
	C342.380371,392.158417 348.672211,388.050323 354.964050,383.942200 
z"/>
<path fill="#36B0AE" opacity="1.000000" stroke="none" 
	d="
M423.993896,276.004883 
	C418.306458,276.944550 418.334473,281.230347 419.353973,285.169037 
	C420.307800,288.854248 418.950134,291.255310 417.444000,294.371979 
	C415.158356,299.101562 411.149658,303.895447 414.690216,309.953125 
	C415.418121,311.198517 415.407898,313.470123 414.771912,314.810242 
	C412.554413,319.482819 409.913086,323.954224 407.441711,328.485809 
	C407.076935,328.512329 406.745453,328.605682 406.442505,328.548218 
	C399.941681,327.315308 399.875702,323.424652 401.874481,318.245819 
	C402.657898,316.215973 402.368591,313.772095 402.328369,310.873260 
	C402.717102,306.491150 403.345276,302.752533 404.105499,298.718140 
	C404.490875,297.613281 404.744202,296.804199 405.004639,295.662933 
	C405.026215,294.888000 405.040680,294.445282 405.372131,293.820862 
	C405.809296,291.109985 405.929504,288.580811 406.057068,285.798828 
	C406.066315,285.377472 406.068146,285.208893 406.384216,284.984619 
	C407.123077,284.277374 407.547729,283.625824 407.973206,282.649475 
	C407.973877,281.891663 407.973785,281.458588 407.984802,280.624176 
	C408.001953,279.154724 408.008026,278.086639 408.225800,276.902161 
	C408.698395,276.579498 408.880341,276.318237 409.319519,275.952606 
	C411.617065,274.437286 411.223785,273.508575 408.988037,272.624451 
	C408.983490,271.500763 408.984070,270.751648 409.382324,269.912476 
	C410.157776,269.330505 410.833252,268.858734 410.868134,268.343536 
	C411.299561,261.973602 411.976593,255.592407 411.883881,249.224426 
	C411.818939,244.765747 411.639069,239.805832 406.009521,237.610229 
	C405.673584,235.478943 405.342316,233.739105 405.363922,231.934143 
	C409.162140,227.802231 412.881256,223.901886 413.726074,217.929413 
	C415.525787,219.769913 417.811340,222.401031 417.312744,223.131226 
	C414.850403,226.737656 417.331451,229.728897 418.184509,232.590805 
	C419.470154,236.903870 421.901642,240.875366 423.846069,244.992050 
	C423.930878,245.427963 424.015656,245.863876 423.793945,246.879517 
	C423.940857,249.303665 424.394257,251.148102 424.847626,252.992538 
	C424.932251,254.055237 425.016846,255.117935 424.765625,256.871552 
	C424.284454,263.709930 424.139160,269.857422 423.993896,276.004883 
M407.022430,316.876007 
	C407.467255,317.374939 408.197662,318.367737 408.314819,318.299988 
	C410.722839,316.907501 411.049316,311.506897 408.129913,308.734833 
	C407.693146,311.591370 407.348511,313.845398 407.022430,316.876007 
z"/>
<path fill="#36B1AB" opacity="1.000000" stroke="none" 
	d="
M423.885437,244.580109 
	C421.901642,240.875366 419.470154,236.903870 418.184509,232.590805 
	C417.331451,229.728897 414.850403,226.737656 417.312744,223.131226 
	C417.811340,222.401031 415.525787,219.769913 413.726074,217.929413 
	C412.881256,223.901886 409.162140,227.802231 405.357544,231.511337 
	C404.381439,228.458786 404.020416,225.672928 403.100250,223.085983 
	C400.237823,215.038727 397.521942,206.908783 394.080170,199.106003 
	C389.816284,189.439346 384.924774,180.046707 380.136505,170.620987 
	C379.840057,170.037460 378.078735,170.198105 376.740051,169.795090 
	C377.218658,166.205978 375.734985,163.710968 373.412781,161.464203 
	C372.051300,160.146957 370.927979,158.585632 369.586731,157.244934 
	C365.457031,153.116943 361.273987,149.042313 357.056702,144.601257 
	C355.651642,141.868942 354.301453,139.482330 352.951294,137.095734 
	C366.105194,144.867981 377.462799,154.903137 387.485352,166.252487 
	C404.028900,184.986008 415.459839,206.606812 421.381775,230.988724 
	C422.436554,235.331589 423.087463,239.772522 423.885437,244.580109 
z"/>
<path fill="#31464A" opacity="1.000000" stroke="none" 
	d="
M159.875671,379.041016 
	C168.633881,386.315857 176.839432,394.425354 186.277039,400.674072 
	C201.240738,410.581757 217.457474,418.273071 235.679749,422.692627 
	C236.262192,422.906647 236.705399,422.948792 236.705399,422.948792 
	C236.705399,422.948792 237.115616,422.775543 237.115616,422.775543 
	C237.501526,422.786591 237.887451,422.797607 238.593567,423.098572 
	C238.991669,423.572632 239.069550,423.756775 239.147430,423.940918 
	C233.149216,428.064484 226.955322,425.848053 220.864563,424.325531 
	C219.752457,424.047546 218.254333,422.595520 218.136520,421.549957 
	C217.725052,417.898224 215.550430,417.878387 212.789352,418.163757 
	C211.059113,418.342621 208.906860,418.743286 207.595734,417.957245 
	C200.348587,413.612396 190.895523,413.765686 185.492966,405.146057 
	C182.825851,400.890747 176.388199,398.996460 171.650879,396.043060 
	C170.820694,395.525513 169.429077,395.229584 169.199738,394.533691 
	C167.216904,388.517578 160.636826,387.246918 157.261047,382.730774 
	C154.649933,379.237579 152.300262,375.520813 149.433304,372.255554 
	C146.990997,369.473999 143.842636,367.324188 141.259720,364.650421 
	C139.324371,362.646973 137.866257,360.255981 141.639099,358.055725 
	C146.893219,363.808990 151.809494,369.610382 156.865646,376.081512 
	C157.962234,377.514526 158.918945,378.277771 159.875671,379.041016 
z"/>
<path fill="#374A4C" opacity="1.000000" stroke="none" 
	d="
M208.180069,122.589539 
	C195.469193,130.851547 181.725388,137.606964 169.961044,146.875015 
	C145.052582,166.498077 128.049454,192.034332 118.739105,222.882126 
	C118.987373,219.699539 119.329437,216.208374 119.892120,212.753159 
	C120.060143,211.721390 121.322037,210.763382 121.268898,209.817307 
	C120.978813,204.652985 123.063690,200.576752 125.700706,196.214447 
	C131.549347,186.539246 137.187531,176.669266 144.534042,168.126923 
	C150.693512,160.964859 158.764740,155.431610 164.813232,148.194122 
	C169.781265,142.249481 175.832169,138.211685 182.183578,134.423233 
	C185.432693,132.485214 188.980469,131.325989 190.260834,127.225510 
	C190.445709,126.633438 191.960052,125.928131 192.644669,126.105103 
	C197.568054,127.377716 201.163895,124.882629 204.867386,122.314240 
	C205.596878,121.808334 206.968521,122.228394 208.180069,122.589539 
z"/>
<path fill="#4CD4C6" opacity="1.000000" stroke="none" 
	d="
M352.750244,136.828461 
	C354.301453,139.482330 355.651642,141.868942 356.674255,144.623779 
	C354.564880,146.327774 352.783051,147.663559 350.613373,148.998886 
	C347.826385,147.996964 345.427277,146.995514 343.017212,145.996948 
	C343.006287,145.999817 343.005737,145.992477 342.899048,145.773788 
	C342.596008,145.280518 342.336426,145.093994 341.738770,144.992157 
	C341.281281,145.002243 341.098541,145.015701 340.915833,145.029175 
	C340.567596,144.579941 340.219360,144.130707 340.126343,143.216476 
	C341.496094,141.835403 342.610657,140.919327 343.725220,140.003250 
	C343.638672,139.448456 343.552094,138.893661 343.465546,138.338867 
	C341.131195,137.953690 338.796875,137.568497 336.462524,137.183304 
	C335.710846,136.303848 334.959167,135.424377 334.406250,134.032379 
	C335.070740,131.322479 335.536499,129.125122 336.002258,126.927757 
	C336.557678,127.120354 337.113068,127.312950 337.947296,127.976425 
	C338.436188,128.722168 338.709229,128.900986 339.045166,128.983749 
	C339.045166,128.983749 338.999969,129.002686 339.126404,129.218872 
	C339.556824,129.608887 339.860779,129.782700 340.164764,129.956512 
	C340.164764,129.956512 340.593079,129.974228 340.934509,130.238464 
	C341.572937,130.653061 341.869934,130.803421 342.166962,130.953796 
	C342.166962,130.953796 342.599274,130.980591 342.928955,131.243958 
	C343.480377,131.755157 343.755707,131.903961 344.084595,131.953705 
	C344.084595,131.953705 344.006439,131.972733 344.080505,132.118652 
	C344.430847,132.212433 344.707153,132.160309 344.983459,132.108185 
	C347.505371,133.592529 350.027313,135.076859 352.750244,136.828461 
z"/>
<path fill="#374A4C" opacity="1.000000" stroke="none" 
	d="
M118.560059,311.078186 
	C124.214806,326.597870 130.901901,341.516541 140.322540,355.513733 
	C136.489670,352.515350 130.480194,351.405212 129.795731,344.560394 
	C129.513885,341.741669 126.800980,339.251892 125.738617,336.408905 
	C122.807228,328.564301 120.146255,320.618073 117.457451,312.685211 
	C117.326942,312.300171 117.950294,311.659637 118.560059,311.078186 
z"/>
<path fill="#374A4C" opacity="1.000000" stroke="none" 
	d="
M115.136894,236.072037 
	C111.484726,260.201996 111.551788,284.265381 118.298439,308.481201 
	C117.240501,308.392761 115.365921,308.037140 115.245804,307.367004 
	C113.686501,298.667389 111.711609,289.963898 111.172661,281.179749 
	C110.508034,270.347351 110.763985,259.422302 111.299683,248.570740 
	C111.506172,244.387955 113.573509,240.297012 115.136894,236.072037 
z"/>
<path fill="#42A9A6" opacity="1.000000" stroke="none" 
	d="
M401.321838,356.869385 
	C402.027039,354.179871 402.865692,351.252777 404.077850,348.489563 
	C405.455933,345.348206 407.270508,342.400665 408.710693,339.283569 
	C410.903107,334.538330 413.235352,329.823944 414.953674,324.902832 
	C416.662354,320.009399 417.686340,314.876923 419.363861,309.427002 
	C420.188629,309.016357 420.660126,309.027954 421.131592,309.039581 
	C420.155029,313.193848 419.779572,317.612549 418.090088,321.453217 
	C412.869263,333.321899 407.147491,344.970245 401.321838,356.869385 
z"/>
<path fill="#4DB1AD" opacity="1.000000" stroke="none" 
	d="
M266.970459,425.998779 
	C276.979492,425.667847 286.996277,425.478607 296.993683,424.934479 
	C300.850433,424.724579 304.663269,423.708710 308.973206,423.101929 
	C301.592133,424.730743 293.795319,426.911499 285.857941,427.730865 
	C278.518219,428.488586 271.027985,427.788239 263.455658,427.181427 
	C264.528351,426.421448 265.749390,426.210114 266.970459,425.998779 
z"/>
<path fill="#51D1C3" opacity="1.000000" stroke="none" 
	d="
M266.973694,425.749634 
	C265.749390,426.210114 264.528351,426.421448 263.102570,426.956482 
	C255.249008,426.156250 247.600174,425.032349 239.549377,423.924683 
	C239.069550,423.756775 238.991669,423.572632 238.883087,423.089905 
	C241.618607,421.745209 244.384796,420.699066 247.437439,419.944916 
	C246.736603,421.005646 245.749313,421.774384 243.491501,423.532440 
	C252.238998,424.080017 259.605774,424.541138 266.972534,425.002258 
	C266.972534,425.002258 266.976959,425.500519 266.973694,425.749634 
z"/>
<path fill="#314549" opacity="1.000000" stroke="none" 
	d="
M422.037231,101.355118 
	C423.400116,102.139091 424.906189,103.171005 426.173096,104.441391 
	C428.890656,107.166389 431.410187,110.092743 434.192444,112.746162 
	C434.749573,113.277458 436.115265,112.960938 437.500122,113.071793 
	C437.928314,114.144516 437.964569,115.180779 438.001648,116.607147 
	C429.669922,115.051643 425.538239,108.728149 422.037231,101.355118 
z"/>
<path fill="#59C5BD" opacity="1.000000" stroke="none" 
	d="
M335.792847,126.659363 
	C335.536499,129.125122 335.070740,131.322479 334.356140,133.745728 
	C331.062347,130.276520 328.017395,126.581406 324.920471,122.549667 
	C328.440125,123.605682 332.011780,124.998322 335.792847,126.659363 
z"/>
<path fill="#42A9A6" opacity="1.000000" stroke="none" 
	d="
M386.346130,376.937317 
	C386.346344,375.654968 386.637024,374.202667 386.967010,372.380371 
	C387.006287,372.010437 387.001282,372.000793 387.352936,371.967529 
	C388.809509,370.292358 389.914429,368.650452 391.019348,367.008545 
	C392.765015,364.855835 394.424652,362.624847 396.287262,360.578583 
	C397.481110,359.267029 398.974152,358.227844 400.685669,357.044373 
	C396.237732,363.603943 391.437164,370.185638 386.346130,376.937317 
z"/>
<path fill="#36B1AB" opacity="1.000000" stroke="none" 
	d="
M423.995422,276.423431 
	C424.139160,269.857422 424.284454,263.709930 424.734192,257.271240 
	C425.203064,265.442627 425.367493,273.905243 425.273865,282.689453 
	C424.676178,280.954712 424.336578,278.898346 423.995422,276.423431 
z"/>
<path fill="#374A4C" opacity="1.000000" stroke="none" 
	d="
M227.004227,116.215607 
	C222.019119,118.291351 216.872452,120.035080 211.360764,121.805359 
	C212.696426,120.533623 214.217361,118.680672 216.137115,118.058578 
	C219.579132,116.943214 223.261017,116.568077 227.004227,116.215607 
z"/>
<path fill="#36B0AE" opacity="1.000000" stroke="none" 
	d="
M421.362793,308.821716 
	C420.660126,309.027954 420.188629,309.016357 419.364319,309.005798 
	C415.899689,305.284332 416.325714,304.185547 422.462067,301.004242 
	C422.407654,303.529480 422.000824,306.066650 421.362793,308.821716 
z"/>
<path fill="#36B1AB" opacity="1.000000" stroke="none" 
	d="
M423.294464,298.734711 
	C423.379120,295.414154 423.720703,291.804230 424.409607,288.099609 
	C424.355072,291.485077 423.953247,294.965210 423.294464,298.734711 
z"/>
<path fill="#4DB1AD" opacity="1.000000" stroke="none" 
	d="
M319.389771,420.927673 
	C321.532349,419.775848 324.044403,418.633392 326.777832,417.773804 
	C324.585907,419.016785 322.172577,419.976868 319.389771,420.927673 
z"/>
<path fill="#42A9A6" opacity="1.000000" stroke="none" 
	d="
M375.348816,387.918335 
	C377.136719,385.651550 379.262329,383.368774 381.741699,381.085266 
	C379.959106,383.357117 377.822784,385.629730 375.348816,387.918335 
z"/>
<path fill="#36B1AB" opacity="1.000000" stroke="none" 
	d="
M424.903870,252.595917 
	C424.394257,251.148102 423.940857,249.303665 423.775055,247.213715 
	C424.361816,248.711914 424.660980,250.455612 424.903870,252.595917 
z"/>
<path fill="#4DB1AD" opacity="1.000000" stroke="none" 
	d="
M311.399506,423.076843 
	C312.839874,422.401398 314.658020,421.725311 316.924194,421.089966 
	C315.507263,421.779175 313.642273,422.427673 311.399506,423.076843 
z"/>
<path fill="#374A4C" opacity="1.000000" stroke="none" 
	d="
M116.758705,228.060333 
	C116.878723,229.475983 116.636757,230.941452 116.162094,232.693420 
	C116.085175,231.356659 116.240944,229.733398 116.758705,228.060333 
z"/>
<path fill="#314549" opacity="1.000000" stroke="none" 
	d="
M318.042297,44.337669 
	C318.859894,44.169220 319.724152,44.323486 320.793640,44.740913 
	C320.028931,44.889511 319.058929,44.774944 318.042297,44.337669 
z"/>
<path fill="#374A4C" opacity="1.000000" stroke="none" 
	d="
M117.860855,224.108185 
	C118.056953,224.848297 117.938324,225.717102 117.647079,226.866180 
	C117.498352,226.176590 117.522232,225.206741 117.860855,224.108185 
z"/>
<path fill="#314549" opacity="1.000000" stroke="none" 
	d="
M335.036987,50.299652 
	C335.443298,50.000675 335.889038,50.000286 336.669128,50.000637 
	C336.768829,50.519352 336.534210,51.037323 336.299561,51.555286 
	C335.891846,51.236267 335.484100,50.917252 335.036987,50.299652 
z"/>
<path fill="#42A9A6" opacity="1.000000" stroke="none" 
	d="
M383.378418,380.023651 
	C383.536652,379.431122 383.997070,378.763916 384.800629,378.083313 
	C384.656036,378.696289 384.168335,379.322601 383.378418,380.023651 
z"/>
<path fill="#3D5352" opacity="1.000000" stroke="none" 
	d="
M495.756165,235.195587 
	C496.001282,235.749023 496.001373,236.484009 495.999329,237.585297 
	C495.835175,237.093445 495.673126,236.235291 495.756165,235.195587 
z"/>
<path fill="#314549" opacity="1.000000" stroke="none" 
	d="
M332.991882,48.265358 
	C333.425598,48.179638 333.862213,48.337036 334.298798,48.494431 
	C334.032623,48.651615 333.766418,48.808807 333.248291,48.980385 
	C332.996338,48.994766 332.994781,48.508484 332.991882,48.265358 
z"/>
<path fill="#52D2CA" opacity="1.000000" stroke="none" 
	d="
M342.044525,130.712189 
	C341.869934,130.803421 341.572937,130.653061 341.143280,130.286896 
	C341.314453,130.204239 341.618286,130.337402 342.044525,130.712189 
z"/>
<path fill="#42A9A6" opacity="1.000000" stroke="none" 
	d="
M382.300903,381.001740 
	C382.238708,380.808380 382.418732,380.521301 382.842926,380.143005 
	C382.905731,380.337158 382.724396,380.622589 382.300903,381.001740 
z"/>
<path fill="#52D2CA" opacity="1.000000" stroke="none" 
	d="
M344.755035,132.033279 
	C344.707153,132.160309 344.430847,132.212433 344.101746,132.084503 
	C344.048920,131.904419 344.526611,131.958374 344.755035,132.033279 
z"/>
<path fill="#52D2CA" opacity="1.000000" stroke="none" 
	d="
M340.049438,129.714020 
	C339.860779,129.782700 339.556824,129.608887 339.133453,129.195435 
	C339.320740,129.127716 339.627411,129.299622 340.049438,129.714020 
z"/>
<path fill="#52D2CA" opacity="1.000000" stroke="none" 
	d="
M338.944336,128.747559 
	C338.709229,128.900986 338.436188,128.722168 338.113403,128.225845 
	C338.281647,128.173386 338.562561,128.342377 338.944336,128.747559 
z"/>
<path fill="#52D2CA" opacity="1.000000" stroke="none" 
	d="
M343.991760,131.712158 
	C343.755707,131.903961 343.480377,131.755157 343.137512,131.302307 
	C343.310547,131.221741 343.604736,131.346176 343.991760,131.712158 
z"/>
<path fill="#2D4145" opacity="1.000000" stroke="none" 
	d="
M362.397247,57.701012 
	C362.197632,57.838036 361.920013,57.960545 361.642426,58.083054 
	C361.742279,57.989059 361.842133,57.895065 362.110901,57.666962 
	C362.279846,57.532852 362.319275,57.686501 362.397247,57.701012 
z"/>
<path fill="#2B4752" opacity="1.000000" stroke="none" 
	d="
M304.813660,250.971878 
	C304.652802,251.804276 304.491974,252.636688 303.778015,253.775452 
	C299.680450,257.168854 298.623718,261.102631 299.295959,265.624908 
	C299.295959,265.624908 299.305054,265.876953 298.859070,265.987610 
	C291.454559,272.737976 284.470947,279.351715 277.553589,286.034027 
	C275.602783,287.918549 273.846222,290.004150 271.626465,292.039246 
	C269.102997,293.764709 264.804047,292.040161 264.360077,296.427856 
	C264.360077,296.427856 264.285156,296.431793 263.898743,296.290649 
	C260.949829,296.178070 258.301910,295.799835 255.841980,296.316589 
	C250.038040,297.535767 244.335693,299.230896 238.567383,300.631073 
	C236.087189,301.233093 233.545319,301.580933 231.031464,302.044250 
	C230.959106,302.208160 230.886734,302.372101 230.604767,303.014740 
	C235.491592,310.869568 238.436508,320.184387 248.264999,323.305664 
	C248.703400,323.444855 249.097305,323.841614 249.422958,324.199371 
	C251.600143,326.591156 253.733078,329.023376 255.920517,331.405609 
	C257.564667,333.196167 259.895233,334.583862 258.394257,337.771790 
	C258.194336,338.196411 260.980530,340.677582 261.169800,340.539673 
	C265.851776,337.129333 266.616272,340.544220 267.736053,343.945953 
	C268.039581,344.867981 269.469421,345.389893 270.315186,346.168365 
	C272.554169,348.229309 274.837952,350.251343 276.951019,352.436707 
	C279.189148,354.751404 280.859100,357.856293 283.475922,359.511230 
	C288.144348,362.463684 293.192535,364.703583 292.266846,371.122894 
	C294.609314,370.593506 296.359314,370.198029 298.109314,369.802551 
	C298.008545,371.391968 297.907806,372.981354 297.797485,374.721375 
	C298.706329,376.242920 301.036896,378.410645 300.635468,379.773834 
	C298.928528,385.570099 302.561890,384.996857 305.964966,385.347809 
	C304.879181,386.873779 303.693695,387.959747 302.809418,389.251801 
	C301.500946,391.163635 300.406342,393.221802 299.112610,395.108215 
	C299.004578,394.998779 299.217010,395.220062 298.838318,395.174011 
	C296.438416,395.263489 294.417175,395.399017 291.925873,395.566040 
	C292.314819,397.542938 292.650696,399.249969 292.882935,401.186462 
	C292.511749,401.608032 292.244232,401.800110 291.579681,401.987671 
	C289.304047,402.195709 287.425476,402.408295 285.546875,402.620850 
	C268.530060,386.710083 251.511612,370.801086 234.496948,354.888031 
	C217.222610,338.732117 200.001297,322.518860 182.631744,306.465973 
	C179.704361,303.760468 178.292648,300.948792 178.484100,296.929138 
	C178.713379,292.115234 178.572342,287.259003 178.208572,282.450104 
	C177.959030,279.151184 178.868378,277.672180 182.834732,278.828064 
	C183.806473,279.538361 184.231903,279.952118 184.658539,279.953369 
	C197.558456,279.990875 210.458725,280.020203 223.357910,279.919342 
	C224.233353,279.912506 225.100739,278.879089 225.971878,278.323151 
	C237.790054,277.591858 248.749756,274.344818 256.779755,265.241974 
	C260.402588,261.135132 262.515900,255.696609 265.515320,250.273315 
	C265.746918,249.113007 265.777313,248.541687 265.902405,247.681274 
	C265.665527,247.257767 265.333984,247.123322 264.541077,246.898499 
	C237.930649,246.828659 211.781555,246.864502 185.632492,246.844879 
	C183.159332,246.843018 180.686417,246.492706 178.213379,246.304169 
	C178.277206,237.820084 178.341019,229.336014 179.040192,220.449554 
	C206.780746,220.030655 233.885971,220.028961 260.990997,219.951752 
	C262.279633,219.948090 263.566406,219.275574 264.854034,218.914551 
	C265.846649,212.743668 261.811310,208.571671 258.500061,204.458359 
	C250.987244,195.125687 240.825577,190.358154 228.921005,190.075638 
	C214.605789,189.735916 200.276962,189.969589 185.954025,189.955811 
	C183.651031,189.953583 181.348038,189.955490 178.323761,189.955490 
	C178.323761,180.826492 178.323761,172.190811 179.006210,163.625992 
	C180.339874,163.799774 180.991089,163.992661 181.642319,163.992752 
	C230.853531,164.000366 280.064758,163.999466 329.275940,163.947784 
	C330.514130,163.946472 331.751740,163.371918 332.989624,163.064728 
	C333.760254,163.768478 335.186676,164.459122 335.201080,165.177994 
	C335.360657,173.160370 335.301544,181.147095 335.301544,189.905304 
	C332.833221,189.905304 330.755920,189.909271 328.678619,189.904633 
	C318.186890,189.881241 307.694763,189.810120 297.203918,189.894623 
	C296.036041,189.904022 294.875275,190.794449 293.855682,191.970490 
	C294.467041,194.395981 294.592346,196.327118 295.466034,197.820343 
	C297.895996,201.973282 300.636841,205.944321 303.254852,209.987213 
	C303.254852,209.987213 303.562073,210.357529 303.213196,210.779327 
	C301.513641,214.448273 301.987457,216.940872 305.712830,218.088745 
	C306.013702,218.249680 306.314606,218.410599 307.078674,219.055237 
	C313.332092,219.694016 319.126678,219.760529 324.910675,220.043137 
	C327.623932,220.175705 330.316895,220.724762 333.026611,221.519287 
	C333.354004,227.196274 333.867584,232.436172 333.945740,237.682556 
	C334.048981,244.612595 333.487305,244.880249 326.759857,245.103180 
	C322.813843,245.233932 318.886902,245.939682 314.951385,246.386765 
	C311.909637,246.959579 308.867859,247.532410 305.410156,248.565659 
	C304.555939,249.519028 304.117706,250.012009 303.679474,250.504974 
	C304.057526,250.660614 304.435608,250.816254 304.813660,250.971878 
z"/>
<path fill="#51D1C3" opacity="1.000000" stroke="none" 
	d="
M291.976715,401.992188 
	C292.244232,401.800110 292.511749,401.608032 293.194641,401.070312 
	C295.479004,398.889832 297.348022,397.054962 299.217010,395.220062 
	C299.217010,395.220062 299.004578,394.998779 299.432983,395.025604 
	C304.119659,390.913879 308.503387,386.891571 312.533997,382.542084 
	C313.375519,381.633972 312.912964,379.517426 313.051392,377.957764 
	C315.029419,374.972046 316.871765,371.885254 319.007690,369.017120 
	C332.129852,351.396576 341.995728,332.065430 350.017914,311.494324 
	C350.607208,313.481293 351.466583,316.084015 350.530792,317.269073 
	C347.265533,321.403900 346.174622,325.930664 346.561157,330.957611 
	C346.659363,332.234558 347.033508,334.276215 347.776123,334.532715 
	C348.877869,334.913239 351.314484,334.362213 351.611298,333.597565 
	C352.553009,331.172028 353.914124,327.921722 353.000916,325.987488 
	C351.509003,322.827423 352.164917,320.509369 354.275635,318.962280 
	C357.293823,316.749969 357.008881,313.951447 357.449005,310.998383 
	C359.804657,311.100525 361.714935,311.201813 364.019318,311.324036 
	C364.019318,315.181335 363.678101,318.518158 364.089233,321.759583 
	C364.989899,328.860413 372.970123,324.457031 376.077728,328.602905 
	C376.465546,329.120361 380.192291,327.135162 381.840973,326.510712 
	C383.809265,327.331116 385.824677,328.139130 387.812317,329.010437 
	C389.247467,329.639587 390.645660,330.353058 392.060333,331.028931 
	C390.687286,335.297974 389.314240,339.567047 387.723602,344.512634 
	C385.906403,343.001007 384.967346,342.219849 383.142212,340.701599 
	C383.089264,345.209198 386.960663,349.814117 381.059937,352.607117 
	C380.168427,352.029663 378.927277,351.225800 377.236816,350.130890 
	C376.788330,353.862457 380.957153,358.110046 374.413757,360.332794 
	C374.165985,360.235901 372.918213,359.748077 371.233704,359.089478 
	C371.240723,363.561310 373.798401,369.455383 366.577728,368.461609 
	C365.307770,371.265106 364.182373,373.749481 362.673340,376.633240 
	C360.870819,377.673340 359.451904,378.314026 357.837463,378.714417 
	C356.932373,378.473206 356.222778,378.472260 355.513184,378.471283 
	C355.661102,378.989380 355.809021,379.507446 355.966492,380.353271 
	C355.981659,381.118073 355.987274,381.555145 355.992889,381.992188 
	C355.669342,382.448608 355.345795,382.905029 354.993164,383.651855 
	C348.672211,388.050323 342.380371,392.158417 336.215027,396.183929 
	C334.460052,395.688751 331.617493,394.054016 330.665680,394.807526 
	C329.122040,396.029663 328.818176,398.817841 327.574005,402.016876 
	C326.383820,401.947357 324.180206,401.818695 321.566010,401.666046 
	C320.750854,405.151398 319.253357,408.712433 315.322418,406.623688 
	C312.156494,409.024689 309.989349,411.692535 307.248505,412.571686 
	C294.530762,416.650909 281.653961,420.234131 268.426270,423.620514 
	C269.759399,421.834747 271.370361,420.203094 273.279236,419.076172 
	C275.062653,418.023285 277.162323,417.506104 279.761078,416.508026 
	C276.699707,413.505402 275.417114,409.912415 271.268005,412.118317 
	C268.589691,413.542267 265.863495,414.876068 262.507507,416.581177 
	C262.514130,416.477631 262.446655,417.530121 262.441406,417.612183 
	C258.955719,418.299927 256.004517,418.973267 253.019302,419.419037 
	C252.047806,419.564148 250.987579,419.114929 249.967926,418.937561 
	C261.565735,413.498291 273.163544,408.059021 285.432800,402.882996 
	C288.570892,405.352539 290.511871,404.883911 291.976715,401.992188 
z"/>
<path fill="#52D2CA" opacity="1.000000" stroke="none" 
	d="
M357.003662,310.997559 
	C357.008881,313.951447 357.293823,316.749969 354.275635,318.962280 
	C352.164917,320.509369 351.509003,322.827423 353.000916,325.987488 
	C353.914124,327.921722 352.553009,331.172028 351.611298,333.597565 
	C351.314484,334.362213 348.877869,334.913239 347.776123,334.532715 
	C347.033508,334.276215 346.659363,332.234558 346.561157,330.957611 
	C346.174622,325.930664 347.265533,321.403900 350.530792,317.269073 
	C351.466583,316.084015 350.607208,313.481293 350.289612,311.263275 
	C350.106567,310.426270 350.204834,309.854584 350.922150,309.078186 
	C353.314789,304.537567 355.310120,300.272614 356.732239,295.824402 
	C357.182587,294.415741 356.102722,292.517883 355.723145,290.843903 
	C355.786591,290.128479 355.850067,289.413086 356.365082,288.294922 
	C357.538422,286.903656 358.717682,285.997986 358.913879,284.914307 
	C362.201965,266.755432 365.269592,248.565414 363.991577,229.533051 
	C363.018433,219.556396 362.471863,209.959808 360.953064,200.519638 
	C359.443848,191.139206 357.202942,181.850754 354.762238,172.660217 
	C353.934631,169.543945 351.519562,166.849243 349.829926,163.961899 
	C349.829926,163.961899 349.708221,163.712585 349.822937,163.126068 
	C349.945557,161.033112 349.953491,159.526672 349.886139,157.848602 
	C349.539429,157.782913 349.268005,157.888885 348.725891,157.878204 
	C347.919891,157.521683 347.384552,157.281799 346.849213,157.041916 
	C346.552612,156.561996 346.256012,156.082077 346.141418,155.201630 
	C346.121368,154.530365 345.919312,154.259598 345.717224,153.988831 
	C345.717224,153.988846 345.625061,153.722427 345.690735,153.295364 
	C345.435303,152.564545 345.114136,152.260773 344.792999,151.957001 
	C344.792999,151.957001 344.656403,151.760284 344.779419,151.257919 
	C344.277679,149.168396 343.652893,147.581223 343.028137,145.994064 
	C345.427277,146.995514 347.826385,147.996964 350.884766,149.229919 
	C353.031342,153.306854 354.518707,157.152298 356.013184,161.409210 
	C357.025970,167.480042 357.621765,173.239578 361.439636,178.005707 
	C362.931946,179.868637 364.608215,181.971054 365.065460,184.197556 
	C366.088654,189.180054 366.315826,194.320770 367.034790,199.373184 
	C367.403107,201.961334 367.509583,204.912888 368.864807,206.947128 
	C370.362457,209.195099 370.555878,210.641052 369.598297,213.155029 
	C367.176117,219.514069 369.163055,223.331924 374.778870,223.669495 
	C374.722198,225.930038 376.288574,228.837524 371.671478,228.552841 
	C370.842560,228.501724 369.220062,230.179840 369.137085,231.158966 
	C368.828613,234.799454 368.907288,238.486160 369.076355,242.144623 
	C369.120667,243.103317 369.776886,244.407883 370.561157,244.894943 
	C374.441620,247.304733 372.950958,250.247223 372.017426,253.526108 
	C370.123749,260.177490 368.641724,266.947052 367.054779,273.683136 
	C366.915375,274.274780 367.103912,275.054901 367.391998,275.618835 
	C370.380798,281.469543 368.638214,287.434570 367.237030,293.109009 
	C366.437317,296.347778 363.636353,299.068878 361.864502,302.097931 
	C360.158508,305.014313 358.617279,308.027130 357.003662,310.997559 
z"/>
<path fill="#34494D" opacity="1.000000" stroke="none" 
	d="
M306.000000,385.000000 
	C302.561890,384.996857 298.928528,385.570099 300.635468,379.773834 
	C301.036896,378.410645 298.706329,376.242920 297.797485,374.721375 
	C297.907806,372.981354 298.008545,371.391968 298.109314,369.802551 
	C296.359314,370.198029 294.609314,370.593506 292.266846,371.122894 
	C293.192535,364.703583 288.144348,362.463684 283.475922,359.511230 
	C280.859100,357.856293 279.189148,354.751404 276.951019,352.436707 
	C274.837952,350.251343 272.554169,348.229309 270.315186,346.168365 
	C269.469421,345.389893 268.039581,344.867981 267.736053,343.945953 
	C266.616272,340.544220 265.851776,337.129333 261.169800,340.539673 
	C260.980530,340.677582 258.194336,338.196411 258.394257,337.771790 
	C259.895233,334.583862 257.564667,333.196167 255.920517,331.405609 
	C253.733078,329.023376 251.600143,326.591156 249.422958,324.199371 
	C249.097305,323.841614 248.703400,323.444855 248.264999,323.305664 
	C238.436508,320.184387 235.491592,310.869568 230.616241,303.283264 
	C242.050385,313.416290 253.266693,323.755981 264.475800,334.103516 
	C280.163116,348.585083 295.845032,363.072510 311.700867,378.145508 
	C310.925751,379.163055 309.979065,379.592499 308.637329,380.024963 
	C307.494873,381.685272 306.747437,383.342651 306.000000,385.000000 
z"/>
<path fill="#45D7CB" opacity="1.000000" stroke="none" 
	d="
M249.690216,418.929230 
	C250.987579,419.114929 252.047806,419.564148 253.019302,419.419037 
	C256.004517,418.973267 258.955719,418.299927 262.441406,417.612183 
	C262.446655,417.530121 262.514130,416.477631 262.507507,416.581177 
	C265.863495,414.876068 268.589691,413.542267 271.268005,412.118317 
	C275.417114,409.912415 276.699707,413.505402 279.761078,416.508026 
	C277.162323,417.506104 275.062653,418.023285 273.279236,419.076172 
	C271.370361,420.203094 269.759399,421.834747 268.018494,423.630249 
	C267.903900,424.337738 267.705750,424.597443 267.198364,424.897888 
	C259.605774,424.541138 252.238998,424.080017 243.491501,423.532440 
	C245.749313,421.774384 246.736603,421.005646 247.833496,419.907074 
	C248.432922,419.358459 248.922714,419.139679 249.690216,418.929230 
z"/>
<path fill="#F4FEF8" opacity="1.000000" stroke="none" 
	d="
M178.176331,246.731201 
	C180.686417,246.492706 183.159332,246.843018 185.632492,246.844879 
	C211.781555,246.864502 237.930649,246.828659 264.621277,247.102173 
	C265.314606,247.658569 265.529541,247.849930 265.807678,247.970352 
	C265.777313,248.541687 265.746918,249.113007 265.504883,249.884552 
	C262.357849,249.722977 259.423676,249.059219 256.486877,249.047485 
	C234.423691,248.959381 212.359909,248.975632 190.296509,249.031998 
	C187.678329,249.038696 185.030243,249.827820 182.455505,249.595383 
	C180.955643,249.459991 179.574066,248.014343 178.176331,246.731201 
z"/>
<path fill="#162929" opacity="1.000000" stroke="none" 
	d="
M332.526978,162.984955 
	C331.751740,163.371918 330.514130,163.946472 329.275940,163.947784 
	C280.064758,163.999466 230.853531,164.000366 181.642319,163.992752 
	C180.991089,163.992661 180.339874,163.799774 179.375076,163.432785 
	C184.198563,163.079712 189.335587,162.915649 194.472687,162.913513 
	C240.336578,162.894485 286.200470,162.904037 332.526978,162.984955 
z"/>
<path fill="#66CEC0" opacity="1.000000" stroke="none" 
	d="
M349.836548,164.369568 
	C351.519562,166.849243 353.934631,169.543945 354.762238,172.660217 
	C357.202942,181.850754 359.443848,191.139206 360.953064,200.519638 
	C362.471863,209.959808 363.018433,219.556396 363.673615,229.540359 
	C362.932373,229.999832 362.508545,230.003372 362.084686,230.006927 
	C361.138123,207.675552 357.147247,185.915497 349.836548,164.369568 
z"/>
<path fill="#51D1C3" opacity="1.000000" stroke="none" 
	d="
M362.004730,230.469421 
	C362.508545,230.003372 362.932373,229.999832 363.674194,229.988953 
	C365.269592,248.565414 362.201965,266.755432 358.913879,284.914307 
	C358.717682,285.997986 357.538422,286.903656 356.440063,287.943604 
	C360.316650,269.210175 362.245087,250.186539 362.004730,230.469421 
z"/>
<path fill="#465B5A" opacity="1.000000" stroke="none" 
	d="
M272.000610,291.997559 
	C273.846222,290.004150 275.602783,287.918549 277.553589,286.034027 
	C284.470947,279.351715 291.454559,272.737976 298.754456,266.057953 
	C293.523132,278.154480 283.742798,286.153687 272.328857,292.677307 
	C271.983337,292.468414 272.000610,291.997559 272.000610,291.997559 
z"/>
<path fill="#465B5A" opacity="1.000000" stroke="none" 
	d="
M315.403748,246.525757 
	C318.886902,245.939682 322.813843,245.233932 326.759857,245.103180 
	C333.487305,244.880249 334.048981,244.612595 333.945740,237.682556 
	C333.867584,232.436172 333.354004,227.196274 333.286011,221.310089 
	C333.723938,220.037140 333.910095,219.407608 334.096252,218.778076 
	C334.487549,219.023941 335.219330,219.267563 335.220947,219.516006 
	C335.279602,228.451965 335.270142,237.388351 335.270142,246.664734 
	C328.425385,246.664734 322.140747,246.664734 315.403748,246.525757 
z"/>
<path fill="#1A2D2F" opacity="1.000000" stroke="none" 
	d="
M264.399719,218.846100 
	C263.566406,219.275574 262.279633,219.948090 260.990997,219.951752 
	C233.885971,220.028961 206.780746,220.030655 179.183594,220.070923 
	C180.366455,219.601974 182.040680,218.682632 183.716171,218.680328 
	C210.459152,218.643524 237.202271,218.723938 264.399719,218.846100 
z"/>
<path fill="#1E3434" opacity="1.000000" stroke="none" 
	d="
M225.508347,278.264557 
	C225.100739,278.879089 224.233353,279.912506 223.357910,279.919342 
	C210.458725,280.020203 197.558456,279.990875 184.658539,279.953369 
	C184.231903,279.952118 183.806473,279.538361 183.223328,278.983551 
	C197.059052,278.502136 211.051926,278.354065 225.508347,278.264557 
z"/>
<path fill="#2C4445" opacity="1.000000" stroke="none" 
	d="
M231.495239,302.085266 
	C233.545319,301.580933 236.087189,301.233093 238.567383,300.631073 
	C244.335693,299.230896 250.038040,297.535767 255.841980,296.316589 
	C258.301910,295.799835 260.949829,296.178070 263.917969,296.258453 
	C254.112228,301.528595 243.149780,302.468994 231.495239,302.085266 
z"/>
<path fill="#285C5F" opacity="1.000000" stroke="none" 
	d="
M309.032349,380.021973 
	C309.979065,379.592499 310.925751,379.163055 311.922272,378.395142 
	C312.149719,378.018219 312.327393,377.979706 312.778198,377.949463 
	C312.912964,379.517426 313.375519,381.633972 312.533997,382.542084 
	C308.503387,386.891571 304.119659,390.913879 299.541016,395.135040 
	C300.406342,393.221802 301.500946,391.163635 302.809418,389.251801 
	C303.693695,387.959747 304.879181,386.873779 306.274292,385.197205 
	C307.423218,383.139893 308.227783,381.580933 309.032349,380.021973 
z"/>
<path fill="#465B5A" opacity="1.000000" stroke="none" 
	d="
M303.256104,209.595459 
	C300.636841,205.944321 297.895996,201.973282 295.466034,197.820343 
	C294.592346,196.327118 294.467041,194.395981 294.017548,192.318390 
	C297.109039,197.715942 300.183167,203.459824 303.256104,209.595459 
z"/>
<path fill="#51D1C3" opacity="1.000000" stroke="none" 
	d="
M355.461365,291.107941 
	C356.102722,292.517883 357.182587,294.415741 356.732239,295.824402 
	C355.310120,300.272614 353.314789,304.537567 351.161804,308.902039 
	C352.254730,303.077789 353.727142,297.224884 355.461365,291.107941 
z"/>
<path fill="#1D3233" opacity="1.000000" stroke="none" 
	d="
M333.713257,218.647095 
	C333.910095,219.407608 333.723938,220.037140 333.278412,220.875870 
	C330.316895,220.724762 327.623932,220.175705 324.910675,220.043137 
	C319.126678,219.760529 313.332092,219.694016 307.287231,219.204102 
	C315.798462,218.751541 324.564392,218.633835 333.713257,218.647095 
z"/>
<path fill="#465B5A" opacity="1.000000" stroke="none" 
	d="
M299.564209,265.381897 
	C298.623718,261.102631 299.680450,257.168854 303.582733,254.035309 
	C302.571167,257.705505 301.201782,261.422211 299.564209,265.381897 
z"/>
<path fill="#52D2CA" opacity="1.000000" stroke="none" 
	d="
M336.534546,137.530823 
	C338.796875,137.568497 341.131195,137.953690 343.465546,138.338867 
	C343.552094,138.893661 343.638672,139.448456 343.725220,140.003250 
	C342.610657,140.919327 341.496094,141.835403 340.090210,142.924850 
	C338.734802,141.358276 337.670685,139.618317 336.534546,137.530823 
z"/>
<path fill="#465B5A" opacity="1.000000" stroke="none" 
	d="
M305.685333,217.731857 
	C301.987457,216.940872 301.513641,214.448273 303.214020,211.019897 
	C304.261749,213.017441 304.959778,215.196213 305.685333,217.731857 
z"/>
<path fill="#2C4445" opacity="1.000000" stroke="none" 
	d="
M271.626465,292.039246 
	C272.000610,291.997559 271.983337,292.468414 271.981323,292.703979 
	C269.674103,294.063416 267.368866,295.187286 264.711853,296.369507 
	C264.804047,292.040161 269.102997,293.764709 271.626465,292.039246 
z"/>
<path fill="#285C5F" opacity="1.000000" stroke="none" 
	d="
M291.579681,401.987671 
	C290.511871,404.883911 288.570892,405.352539 285.759888,403.049927 
	C285.415558,402.953613 285.420563,402.762970 285.483704,402.691925 
	C287.425476,402.408295 289.304047,402.195709 291.579681,401.987671 
z"/>
<path fill="#66CEC0" opacity="1.000000" stroke="none" 
	d="
M343.017212,145.996948 
	C343.652893,147.581223 344.277679,149.168396 344.835846,151.152283 
	C343.494415,149.615433 342.219574,147.681854 340.930267,145.388718 
	C341.098541,145.015701 341.281281,145.002243 341.844238,145.211639 
	C342.420929,145.709991 342.681366,145.895981 343.005737,145.992477 
	C343.005737,145.992477 343.006287,145.999817 343.017212,145.996948 
z"/>
<path fill="#66CEC0" opacity="1.000000" stroke="none" 
	d="
M349.961426,158.020248 
	C349.953491,159.526672 349.945557,161.033112 349.880707,162.999954 
	C348.846619,161.561554 347.869446,159.662735 346.870728,157.402924 
	C347.384552,157.281799 347.919891,157.521683 348.967102,157.884979 
	C349.479004,158.008408 349.961426,158.020248 349.961426,158.020248 
z"/>
<path fill="#374A4C" opacity="1.000000" stroke="none" 
	d="
M159.759979,378.759399 
	C158.918945,378.277771 157.962234,377.514526 156.998001,376.388947 
	C157.875092,376.843689 158.759689,377.660736 159.759979,378.759399 
z"/>
<path fill="#465B5A" opacity="1.000000" stroke="none" 
	d="
M305.020569,250.775620 
	C304.435608,250.816254 304.057526,250.660614 303.679474,250.504974 
	C304.117706,250.012009 304.555939,249.519028 305.254944,248.987396 
	C305.419647,249.492294 305.323578,250.035828 305.020569,250.775620 
z"/>
<path fill="#51D1C3" opacity="1.000000" stroke="none" 
	d="
M236.933090,422.624756 
	C237.115616,422.775543 236.705399,422.948792 236.705399,422.948792 
	C236.705399,422.948792 236.262192,422.906647 236.075409,422.789246 
	C236.127899,422.396790 236.415207,422.330841 236.933090,422.624756 
z"/>
<path fill="#66CEC0" opacity="1.000000" stroke="none" 
	d="
M345.729004,154.255524 
	C345.919312,154.259598 346.121368,154.530365 346.135651,154.907730 
	C345.878845,154.850311 345.809814,154.686279 345.729004,154.255524 
z"/>
<path fill="#66CEC0" opacity="1.000000" stroke="none" 
	d="
M344.861328,152.284241 
	C345.114136,152.260773 345.435303,152.564545 345.801849,153.208618 
	C345.541412,153.236465 345.235535,152.923981 344.861328,152.284241 
z"/>
<path fill="#4BD2C4" opacity="1.000000" stroke="none" 
	d="
M357.449005,310.998383 
	C358.617279,308.027130 360.158508,305.014313 361.864502,302.097931 
	C363.636353,299.068878 366.437317,296.347778 367.237030,293.109009 
	C368.638214,287.434570 370.380798,281.469543 367.391998,275.618835 
	C367.103912,275.054901 366.915375,274.274780 367.054779,273.683136 
	C368.641724,266.947052 370.123749,260.177490 372.017426,253.526108 
	C372.950958,250.247223 374.441620,247.304733 370.561157,244.894943 
	C369.776886,244.407883 369.120667,243.103317 369.076355,242.144623 
	C368.907288,238.486160 368.828613,234.799454 369.137085,231.158966 
	C369.220062,230.179840 370.842560,228.501724 371.671478,228.552841 
	C376.288574,228.837524 374.722198,225.930038 374.778870,223.669495 
	C369.163055,223.331924 367.176117,219.514069 369.598297,213.155029 
	C370.555878,210.641052 370.362457,209.195099 368.864807,206.947128 
	C367.509583,204.912888 367.403107,201.961334 367.034790,199.373184 
	C366.315826,194.320770 366.088654,189.180054 365.065460,184.197556 
	C364.608215,181.971054 362.931946,179.868637 361.439636,178.005707 
	C357.621765,173.239578 357.025970,167.480042 356.374146,161.450165 
	C357.798065,162.216080 359.610901,163.240845 359.801697,164.509537 
	C360.420837,168.627014 363.235199,169.783432 366.452972,171.526718 
	C369.787537,173.333237 372.109589,176.921021 375.134521,179.414185 
	C377.603546,181.449158 377.363647,186.288528 382.270996,186.192657 
	C385.499298,189.986404 389.563202,193.165482 387.160034,198.791107 
	C387.016937,199.126114 387.392273,199.741058 387.627625,200.170197 
	C389.901917,204.317123 392.220215,208.440186 394.459106,212.606003 
	C394.734955,213.119308 394.901123,214.013168 394.641479,214.442184 
	C392.415771,218.119339 395.293396,219.338898 397.859711,220.835892 
	C397.008240,223.512817 396.183472,226.105743 395.276550,228.957031 
	C397.682434,229.729004 399.868439,230.430420 402.054443,231.131836 
	C401.953094,231.547180 401.851715,231.962524 401.750366,232.377869 
	C400.420654,232.453049 399.090942,232.528244 397.569214,232.614288 
	C397.253510,235.412186 396.016144,239.815048 396.828583,240.232956 
	C402.526215,243.163681 399.684662,245.946533 395.715759,249.961792 
	C400.681458,249.525986 407.644897,245.294510 404.202667,254.701126 
	C405.729309,254.825073 406.849640,254.916046 407.976135,255.342957 
	C407.654449,257.455963 407.326599,259.233002 406.992615,261.398865 
	C406.387970,263.471771 406.119263,265.386627 405.131592,266.798523 
	C401.603882,271.841583 397.820038,276.704987 394.158844,281.655426 
	C392.763184,283.542542 392.002502,285.153778 393.517151,287.774597 
	C394.639069,289.715851 395.167725,292.877319 391.767242,294.503693 
	C391.065582,294.839264 390.961945,296.425140 390.572723,297.461212 
	C392.921661,298.024017 394.963409,298.513214 397.003479,299.426208 
	C395.795502,305.563019 394.589203,311.276062 393.249939,317.618805 
	C394.716583,318.044250 396.363281,318.521912 398.009979,318.999573 
	C397.244354,320.962830 396.478729,322.926056 395.019165,324.893616 
	C393.497711,324.025146 392.670197,323.152344 391.373047,321.784271 
	C389.046967,325.595459 391.323120,326.386963 393.976135,326.994843 
	C393.509460,328.206146 393.042816,329.417480 392.318237,330.828857 
	C390.645660,330.353058 389.247467,329.639587 387.812317,329.010437 
	C385.824677,328.139130 383.809265,327.331116 381.840973,326.510712 
	C380.192291,327.135162 376.465546,329.120361 376.077728,328.602905 
	C372.970123,324.457031 364.989899,328.860413 364.089233,321.759583 
	C363.678101,318.518158 364.019318,315.181335 364.019318,311.324036 
	C361.714935,311.201813 359.804657,311.100525 357.449005,310.998383 
M381.810944,312.830627 
	C379.157532,312.145142 375.795105,309.350037 374.429199,313.871613 
	C373.695862,316.299103 374.827393,319.289917 375.117462,322.026550 
	C377.065338,321.728760 379.014862,321.441071 380.959961,321.126129 
	C381.449432,321.046875 381.986786,320.983093 382.396301,320.736481 
	C384.588684,319.416229 386.747589,318.040344 388.918060,316.683655 
	C386.803497,315.462219 384.688904,314.240753 381.810944,312.830627 
z"/>
<path fill="#45CCBC" opacity="1.000000" stroke="none" 
	d="
M398.289368,318.792114 
	C396.363281,318.521912 394.716583,318.044250 393.249939,317.618805 
	C394.589203,311.276062 395.795502,305.563019 397.403442,299.425873 
	C398.872070,298.999939 399.939117,298.998138 401.339142,298.997925 
	C402.116394,299.000916 402.560638,299.002289 403.247009,299.006348 
	C403.489136,299.009064 403.973419,299.013947 403.973450,299.013947 
	C403.345276,302.752533 402.717102,306.491150 402.047607,310.615234 
	C400.860413,313.528748 399.714600,316.056702 398.289368,318.792114 
z"/>
<path fill="#36B7B2" opacity="1.000000" stroke="none" 
	d="
M356.396057,381.994934 
	C355.987274,381.555145 355.981659,381.118073 356.276489,380.324280 
	C357.062286,379.629944 357.547638,379.292328 358.032990,378.954712 
	C359.451904,378.314026 360.870819,377.673340 362.627686,376.984558 
	C362.572021,380.648315 360.663605,382.514496 356.396057,381.994934 
z"/>
<path fill="#36B7B2" opacity="1.000000" stroke="none" 
	d="
M390.635895,367.005768 
	C389.914429,368.650452 388.809509,370.292358 387.357605,371.970215 
	C385.842163,368.881134 386.121887,366.694489 390.635895,367.005768 
z"/>
<path fill="#51D1C3" opacity="1.000000" stroke="none" 
	d="
M394.225616,326.831757 
	C391.323120,326.386963 389.046967,325.595459 391.373047,321.784271 
	C392.670197,323.152344 393.497711,324.025146 394.665375,324.950195 
	C394.828674,325.557861 394.651886,326.113251 394.225616,326.831757 
z"/>
<path fill="#4DC8BE" opacity="1.000000" stroke="none" 
	d="
M407.969971,255.007019 
	C406.849640,254.916046 405.729309,254.825073 404.202667,254.701126 
	C407.644897,245.294510 400.681458,249.525986 395.715759,249.961792 
	C399.684662,245.946533 402.526215,243.163681 396.828583,240.232956 
	C396.016144,239.815048 397.253510,235.412186 397.569214,232.614288 
	C399.090942,232.528244 400.420654,232.453049 401.750366,232.377869 
	C401.851715,231.962524 401.953094,231.547180 402.054443,231.131836 
	C399.868439,230.430420 397.682434,229.729004 395.276550,228.957031 
	C396.183472,226.105743 397.008240,223.512817 397.859711,220.835892 
	C395.293396,219.338898 392.415771,218.119339 394.641479,214.442184 
	C394.901123,214.013168 394.734955,213.119308 394.459106,212.606003 
	C392.220215,208.440186 389.901917,204.317123 387.627625,200.170197 
	C387.392273,199.741058 387.016937,199.126114 387.160034,198.791107 
	C389.563202,193.165482 385.499298,189.986404 382.271606,185.768860 
	C381.935059,183.842407 382.190155,182.410645 381.746429,181.244858 
	C380.301422,177.448425 378.601074,173.749176 376.998962,170.012527 
	C378.078735,170.198105 379.840057,170.037460 380.136505,170.620987 
	C384.924774,180.046707 389.816284,189.439346 394.080170,199.106003 
	C397.521942,206.908783 400.237823,215.038727 403.100250,223.085983 
	C404.020416,225.672928 404.381439,228.458786 405.004639,231.576447 
	C405.342316,233.739105 405.673584,235.478943 405.890503,237.910828 
	C406.507385,244.070938 407.238678,249.538971 407.969971,255.007019 
M396.482239,215.589218 
	C396.482239,215.589218 396.414673,215.476929 396.482239,215.589218 
z"/>
<path fill="#4FCEC2" opacity="1.000000" stroke="none" 
	d="
M401.006134,298.996338 
	C399.939117,298.998138 398.872070,298.999939 397.405090,299.002106 
	C394.963409,298.513214 392.921661,298.024017 390.572723,297.461212 
	C390.961945,296.425140 391.065582,294.839264 391.767242,294.503693 
	C395.167725,292.877319 394.639069,289.715851 393.517151,287.774597 
	C392.002502,285.153778 392.763184,283.542542 394.158844,281.655426 
	C397.820038,276.704987 401.603882,271.841583 405.131592,266.798523 
	C406.119263,265.386627 406.387970,263.471771 407.381653,261.479126 
	C408.179443,264.114594 408.582062,267.058563 408.984650,270.002502 
	C408.984070,270.751648 408.983490,271.500763 408.982239,272.999786 
	C408.982117,274.500458 408.982727,275.251221 408.983337,276.002014 
	C408.880341,276.318237 408.698395,276.579498 407.835175,276.898804 
	C406.204376,277.491150 405.175873,277.970428 404.147369,278.449707 
	C405.422821,279.308319 406.698242,280.166931 407.973694,281.025543 
	C407.973785,281.458588 407.973877,281.891663 407.654663,282.701233 
	C406.913605,283.731964 406.491821,284.386108 406.070007,285.040283 
	C406.068146,285.208893 406.066315,285.377472 405.686768,285.744507 
	C403.710419,286.073212 402.111755,286.203491 400.513123,286.333771 
	C401.140350,288.201630 401.584808,290.162628 402.469727,291.899139 
	C402.931030,292.804352 404.168365,293.314148 405.055145,294.002533 
	C405.040680,294.445282 405.026215,294.888000 404.675110,295.662781 
	C403.899048,295.989838 403.459625,295.984894 402.664429,296.016937 
	C401.874542,297.034698 401.440338,298.015533 401.006134,298.996338 
z"/>
<path fill="#36B1AB" opacity="1.000000" stroke="none" 
	d="
M409.382324,269.912476 
	C408.582062,267.058563 408.179443,264.114594 407.387817,261.090363 
	C407.326599,259.233002 407.654449,257.455963 407.976135,255.342957 
	C407.238678,249.538971 406.507385,244.070938 405.895111,238.302277 
	C411.639069,239.805832 411.818939,244.765747 411.883881,249.224426 
	C411.976593,255.592407 411.299561,261.973602 410.868134,268.343536 
	C410.833252,268.858734 410.157776,269.330505 409.382324,269.912476 
z"/>
<path fill="#40C1B5" opacity="1.000000" stroke="none" 
	d="
M405.372131,293.820862 
	C404.168365,293.314148 402.931030,292.804352 402.469727,291.899139 
	C401.584808,290.162628 401.140350,288.201630 400.513123,286.333771 
	C402.111755,286.203491 403.710419,286.073212 405.679382,285.997284 
	C405.929504,288.580811 405.809296,291.109985 405.372131,293.820862 
z"/>
<path fill="#32B6AE" opacity="1.000000" stroke="none" 
	d="
M407.013153,316.487732 
	C407.348511,313.845398 407.693146,311.591370 408.129913,308.734833 
	C411.049316,311.506897 410.722839,316.907501 408.314819,318.299988 
	C408.197662,318.367737 407.467255,317.374939 407.013153,316.487732 
z"/>
<path fill="#40C1B5" opacity="1.000000" stroke="none" 
	d="
M407.984802,280.624176 
	C406.698242,280.166931 405.422821,279.308319 404.147369,278.449707 
	C405.175873,277.970428 406.204376,277.491150 407.623474,277.015198 
	C408.008026,278.086639 408.001953,279.154724 407.984802,280.624176 
z"/>
<path fill="#36B1AB" opacity="1.000000" stroke="none" 
	d="
M409.319519,275.952606 
	C408.982727,275.251221 408.982117,274.500458 408.987366,273.374329 
	C411.223785,273.508575 411.617065,274.437286 409.319519,275.952606 
z"/>
<path fill="#40C1B5" opacity="1.000000" stroke="none" 
	d="
M403.020172,295.979980 
	C403.459625,295.984894 403.899048,295.989838 404.668030,295.994934 
	C404.744202,296.804199 404.490875,297.613281 404.105469,298.718140 
	C403.973419,299.013947 403.489136,299.009064 403.247925,298.628540 
	C403.011200,297.492035 403.015686,296.735992 403.020172,295.979980 
z"/>
<path fill="#40C1B5" opacity="1.000000" stroke="none" 
	d="
M406.384216,284.984619 
	C406.491821,284.386108 406.913605,283.731964 407.653900,283.026031 
	C407.547729,283.625824 407.123077,284.277374 406.384216,284.984619 
z"/>
<path fill="#47D6C0" opacity="1.000000" stroke="none" 
	d="
M376.740051,169.795090 
	C378.601074,173.749176 380.301422,177.448425 381.746429,181.244858 
	C382.190155,182.410645 381.935059,183.842407 381.999390,185.576187 
	C377.363647,186.288528 377.603546,181.449158 375.134521,179.414185 
	C372.109589,176.921021 369.787537,173.333237 366.452972,171.526718 
	C363.235199,169.783432 360.420837,168.627014 359.801697,164.509537 
	C359.610901,163.240845 357.798065,162.216080 356.367035,161.038666 
	C354.518707,157.152298 353.031342,153.306854 351.272583,149.230377 
	C352.783051,147.663559 354.564880,146.327774 356.729156,144.969467 
	C361.273987,149.042313 365.457031,153.116943 369.586731,157.244934 
	C370.927979,158.585632 372.051300,160.146957 373.412781,161.464203 
	C375.734985,163.710968 377.218658,166.205978 376.740051,169.795090 
z"/>
<path fill="#59C5BD" opacity="1.000000" stroke="none" 
	d="
M342.899048,145.773788 
	C342.681366,145.895981 342.420929,145.709991 342.119019,145.215027 
	C342.336426,145.093994 342.596008,145.280518 342.899048,145.773788 
z"/>
<path fill="#285C5F" opacity="1.000000" stroke="none" 
	d="
M298.838318,395.174011 
	C297.348022,397.054962 295.479004,398.889832 293.298279,400.840851 
	C292.650696,399.249969 292.314819,397.542938 291.925873,395.566040 
	C294.417175,395.399017 296.438416,395.263489 298.838318,395.174011 
z"/>
<path fill="#FAFCEF" opacity="1.000000" stroke="none" 
	d="
M265.902374,247.681274 
	C265.529541,247.849930 265.314606,247.658569 265.082642,247.192566 
	C265.333984,247.123322 265.665527,247.257767 265.902374,247.681274 
z"/>
<path fill="#32B6AE" opacity="1.000000" stroke="none" 
	d="
M357.837463,378.714417 
	C357.547638,379.292328 357.062286,379.629944 356.266937,379.996552 
	C355.809021,379.507446 355.661102,378.989380 355.513184,378.471283 
	C356.222778,378.472260 356.932373,378.473206 357.837463,378.714417 
z"/>
<path fill="#5DD0BF" opacity="1.000000" stroke="none" 
	d="
M349.886139,157.848602 
	C349.961426,158.020248 349.479004,158.008408 349.237793,158.001633 
	C349.268005,157.888885 349.539429,157.782913 349.886139,157.848602 
z"/>
<path fill="#2B4752" opacity="1.000000" stroke="none" 
	d="
M308.637329,380.024963 
	C308.227783,381.580933 307.423218,383.139893 306.309326,384.849426 
	C306.747437,383.342651 307.494873,381.685272 308.637329,380.024963 
z"/>
<path fill="#4BD5BF" opacity="1.000000" stroke="none" 
	d="
M382.192627,312.924957 
	C384.688904,314.240753 386.803497,315.462219 388.918060,316.683655 
	C386.747589,318.040344 384.588684,319.416229 382.396301,320.736481 
	C381.986786,320.983093 381.449432,321.046875 380.959961,321.126129 
	C379.014862,321.441071 377.065338,321.728760 375.117462,322.026550 
	C374.827393,319.289917 373.695862,316.299103 374.429199,313.871613 
	C375.795105,309.350037 379.157532,312.145142 382.192627,312.924957 
z"/>
<path fill="#36B0AE" opacity="1.000000" stroke="none" 
	d="
M402.664429,296.016937 
	C403.015686,296.735992 403.011200,297.492035 403.005798,298.625854 
	C402.560638,299.002289 402.116394,299.000916 401.339142,298.997925 
	C401.440338,298.015533 401.874542,297.034698 402.664429,296.016937 
z"/>
<path fill="#4BD2C4" opacity="1.000000" stroke="none" 
	d="
M396.448456,215.533081 
	C396.414673,215.476929 396.482239,215.589218 396.448456,215.533081 
z"/>
</svg>